<svg id="Layer_1" data-name="Layer 1" xmlns="http://www.w3.org/2000/svg" width="24" height="24" viewBox="0 0 24 24">
  <title>AC-DC</title>
  <g>
    <path d="M7.25,13.45,6.41,16H5.33L8.08,7.91H9.33L12.09,16H11l-.87-2.54Zm2.65-.82L9.11,10.3c-.18-.52-.3-1-.42-1.47h0c-.12.48-.25,1-.41,1.46l-.79,2.34Z" style="fill: #3080ee;stroke: #307dee;stroke-miterlimit: 10"/>
    <path d="M18.75,15.73a5.2,5.2,0,0,1-2.13.38,3.78,3.78,0,0,1-4-4.09,4,4,0,0,1,4.23-4.25,4.44,4.44,0,0,1,1.92.36L18.51,9a3.66,3.66,0,0,0-1.63-.34A3,3,0,0,0,13.73,12a2.94,2.94,0,0,0,3.1,3.25,4.27,4.27,0,0,0,1.71-.33Z" style="fill: #3080ee;stroke: #307dee;stroke-miterlimit: 10"/>
  </g>
  <line x1="3" y1="5" x2="3" y2="19" style="fill: none;stroke: #b3b3b3;stroke-miterlimit: 10"/>
  <line x1="20.5" y1="5" x2="20.5" y2="19" style="fill: none;stroke: #b3b3b3;stroke-miterlimit: 10"/>
  <line x1="3.5" y1="5.5" x2="20.5" y2="5.5" style="fill: none;stroke: #b3b3b3;stroke-miterlimit: 10"/>
  <line x1="3.5" y1="18.5" x2="20.5" y2="18.5" style="fill: none;stroke: #b3b3b3;stroke-miterlimit: 10"/>
</svg>
