<svg xmlns="http://www.w3.org/2000/svg" xmlns:xlink="http://www.w3.org/1999/xlink" width="45" height="380" viewBox="0 0 45 380">
  <defs>
    <clipPath id="clip-basic-panel">
      <rect width="45" height="380"/>
    </clipPath>
  </defs>
  <g id="basic-panel" clip-path="url(#clip-basic-panel)">
    <rect width="45" height="380" fill="#fff"/>
    <path id="Path_3" data-name="Path 3" d="M.489-2.959A3.433,3.433,0,0,1,.824-4.5a2.5,2.5,0,0,1,.935-1.053,2.544,2.544,0,0,1,1.367-.371,2.451,2.451,0,0,1,1.92.822,3.162,3.162,0,0,1,.733,2.186v.07a3.462,3.462,0,0,1-.325,1.523,2.467,2.467,0,0,1-.929,1.05A2.573,2.573,0,0,1,3.137.107,2.445,2.445,0,0,1,1.222-.714,3.146,3.146,0,0,1,.489-2.89Zm1,.118a2.486,2.486,0,0,0,.448,1.552,1.435,1.435,0,0,0,1.2.585A1.427,1.427,0,0,0,4.34-1.3a2.719,2.719,0,0,0,.446-1.662,2.482,2.482,0,0,0-.454-1.55A1.443,1.443,0,0,0,3.126-5.1a1.427,1.427,0,0,0-1.187.585A2.7,2.7,0,0,0,1.488-2.841ZM9.356-.7a1.431,1.431,0,0,0,.929-.322,1.134,1.134,0,0,0,.44-.806h.94a1.8,1.8,0,0,1-.344.951,2.264,2.264,0,0,1-.846.72,2.441,2.441,0,0,1-1.12.269A2.394,2.394,0,0,1,7.469-.685a3.155,3.155,0,0,1-.7-2.167v-.167a3.5,3.5,0,0,1,.312-1.509,2.373,2.373,0,0,1,.894-1.026,2.54,2.54,0,0,1,1.378-.365,2.331,2.331,0,0,1,1.625.585,2.092,2.092,0,0,1,.69,1.52h-.94A1.369,1.369,0,0,0,10.3-4.74,1.328,1.328,0,0,0,9.351-5.1a1.391,1.391,0,0,0-1.174.545,2.56,2.56,0,0,0-.416,1.576v.188a2.509,2.509,0,0,0,.414,1.547A1.4,1.4,0,0,0,9.356-.7Zm4.775-6.515v1.407h1.085v.768H14.131v3.609a.807.807,0,0,0,.145.524.61.61,0,0,0,.494.175A2.406,2.406,0,0,0,15.243-.8V0a2.9,2.9,0,0,1-.763.107,1.237,1.237,0,0,1-1-.4,1.731,1.731,0,0,1-.338-1.144v-3.6H12.08v-.768h1.058V-7.219ZM19.964,0a2.087,2.087,0,0,1-.14-.612,2.217,2.217,0,0,1-1.654.72,2.051,2.051,0,0,1-1.41-.486,1.573,1.573,0,0,1-.551-1.233,1.643,1.643,0,0,1,.69-1.41,3.254,3.254,0,0,1,1.942-.5h.967V-3.98a1.116,1.116,0,0,0-.312-.83,1.252,1.252,0,0,0-.918-.309,1.449,1.449,0,0,0-.892.269.791.791,0,0,0-.36.65h-1a1.371,1.371,0,0,1,.309-.841,2.108,2.108,0,0,1,.838-.642,2.819,2.819,0,0,1,1.163-.236,2.3,2.3,0,0,1,1.574.5A1.812,1.812,0,0,1,20.8-4.034v2.675a3.27,3.27,0,0,0,.2,1.273V0ZM18.315-.757A1.746,1.746,0,0,0,19.2-1a1.462,1.462,0,0,0,.607-.628V-2.82H19.03Q17.2-2.82,17.2-1.751a.9.9,0,0,0,.312.73A1.2,1.2,0,0,0,18.315-.757ZM24.2-1.348l1.439-4.463h1.015L24.567,0H23.81L21.7-5.812H22.72ZM29.949.107a2.539,2.539,0,0,1-1.923-.776,2.881,2.881,0,0,1-.741-2.076v-.183a3.487,3.487,0,0,1,.33-1.544,2.577,2.577,0,0,1,.924-1.063,2.323,2.323,0,0,1,1.286-.384,2.177,2.177,0,0,1,1.762.747,3.232,3.232,0,0,1,.628,2.138v.414H28.279a2.066,2.066,0,0,0,.5,1.388A1.579,1.579,0,0,0,30-.7a1.731,1.731,0,0,0,.892-.215,2.24,2.24,0,0,0,.639-.569l.607.473A2.44,2.44,0,0,1,29.949.107ZM29.826-5.1a1.325,1.325,0,0,0-1.01.438,2.128,2.128,0,0,0-.5,1.227h2.911v-.075a1.893,1.893,0,0,0-.408-1.174A1.248,1.248,0,0,0,29.826-5.1Z" transform="translate(9 52) rotate(-90)"/>
    <path id="Path_4" data-name="Path 4" d="M4.136-1.542a.732.732,0,0,0-.3-.626,2.921,2.921,0,0,0-1.058-.384,5,5,0,0,1-1.2-.387,1.7,1.7,0,0,1-.655-.537,1.285,1.285,0,0,1-.212-.741,1.508,1.508,0,0,1,.6-1.208,2.36,2.36,0,0,1,1.544-.494,2.428,2.428,0,0,1,1.6.51A1.621,1.621,0,0,1,5.076-4.1h-1a.9.9,0,0,0-.346-.7,1.3,1.3,0,0,0-.873-.3,1.358,1.358,0,0,0-.849.236.744.744,0,0,0-.306.618.6.6,0,0,0,.285.542,3.5,3.5,0,0,0,1.029.349,5.359,5.359,0,0,1,1.206.4,1.759,1.759,0,0,1,.685.556,1.367,1.367,0,0,1,.223.792A1.487,1.487,0,0,1,4.506-.363,2.613,2.613,0,0,1,2.89.107,2.926,2.926,0,0,1,1.654-.14,2.009,2.009,0,0,1,.814-.83a1.664,1.664,0,0,1-.3-.959H1.5A1.029,1.029,0,0,0,1.9-1,1.552,1.552,0,0,0,2.89-.7a1.6,1.6,0,0,0,.905-.228A.7.7,0,0,0,4.136-1.542ZM8.835.107A2.539,2.539,0,0,1,6.913-.669a2.881,2.881,0,0,1-.741-2.076v-.183A3.487,3.487,0,0,1,6.5-4.471a2.577,2.577,0,0,1,.924-1.063,2.323,2.323,0,0,1,1.286-.384,2.177,2.177,0,0,1,1.762.747A3.232,3.232,0,0,1,11.1-3.035v.414H7.165a2.066,2.066,0,0,0,.5,1.388A1.579,1.579,0,0,0,8.889-.7a1.731,1.731,0,0,0,.892-.215,2.24,2.24,0,0,0,.639-.569l.607.473A2.44,2.44,0,0,1,8.835.107ZM8.712-5.1a1.325,1.325,0,0,0-1.01.438,2.128,2.128,0,0,0-.5,1.227h2.911v-.075A1.893,1.893,0,0,0,9.7-4.686,1.248,1.248,0,0,0,8.712-5.1Zm4.474-.709.027.645a2.146,2.146,0,0,1,1.724-.752,1.662,1.662,0,0,1,1.66.935,2.2,2.2,0,0,1,.755-.677,2.229,2.229,0,0,1,1.1-.258q1.912,0,1.944,2.025V0H19.4V-3.835a1.334,1.334,0,0,0-.285-.932,1.254,1.254,0,0,0-.956-.309,1.318,1.318,0,0,0-.918.33,1.34,1.34,0,0,0-.424.889V0h-1V-3.808a1.109,1.109,0,0,0-1.241-1.268,1.329,1.329,0,0,0-1.337.833V0h-.994V-5.812ZM22.972,0h-.994V-5.812h.994ZM21.9-7.353a.593.593,0,0,1,.148-.408.555.555,0,0,1,.438-.167.563.563,0,0,1,.44.167.587.587,0,0,1,.15.408.568.568,0,0,1-.15.4.573.573,0,0,1-.44.161.565.565,0,0,1-.438-.161A.573.573,0,0,1,21.9-7.353Z" transform="translate(10 88) rotate(-90)"/>
    <path id="Path_5" data-name="Path 5" d="M1.085,0V-5.043H.167v-.768h.918v-.494A2.019,2.019,0,0,1,1.641-7.82a2.156,2.156,0,0,1,1.571-.542,4.731,4.731,0,0,1,1.52.328L4.565-7.2a3.443,3.443,0,0,0-1.278-.269,1.251,1.251,0,0,0-.921.287,1.185,1.185,0,0,0-.282.862v.5H3.271v.768H2.084V0ZM5.226,0h-1V-5.812h1ZM7.783-5.812l.032.73a2.118,2.118,0,0,1,1.74-.838q1.842,0,1.858,2.079V0H10.42V-3.846a1.338,1.338,0,0,0-.287-.929,1.152,1.152,0,0,0-.878-.3,1.434,1.434,0,0,0-.849.258,1.751,1.751,0,0,0-.569.677V0H6.843V-5.812ZM15.324.107A2.539,2.539,0,0,1,13.4-.669a2.881,2.881,0,0,1-.741-2.076v-.183a3.487,3.487,0,0,1,.33-1.544,2.577,2.577,0,0,1,.924-1.063A2.323,2.323,0,0,1,15.2-5.919a2.177,2.177,0,0,1,1.762.747,3.232,3.232,0,0,1,.628,2.138v.414H13.653a2.066,2.066,0,0,0,.5,1.388A1.579,1.579,0,0,0,15.377-.7a1.731,1.731,0,0,0,.892-.215,2.24,2.24,0,0,0,.639-.569l.607.473A2.44,2.44,0,0,1,15.324.107ZM15.2-5.1a1.325,1.325,0,0,0-1.01.438,2.128,2.128,0,0,0-.5,1.227H16.6v-.075a1.893,1.893,0,0,0-.408-1.174A1.248,1.248,0,0,0,15.2-5.1Z" transform="translate(10 123) rotate(-90)"/>
    <path id="Path_13" data-name="Path 13" d="M.489-2.959A3.433,3.433,0,0,1,.824-4.5a2.5,2.5,0,0,1,.935-1.053,2.544,2.544,0,0,1,1.367-.371,2.451,2.451,0,0,1,1.92.822,3.162,3.162,0,0,1,.733,2.186v.07a3.462,3.462,0,0,1-.325,1.523,2.467,2.467,0,0,1-.929,1.05A2.573,2.573,0,0,1,3.137.107,2.445,2.445,0,0,1,1.222-.714,3.146,3.146,0,0,1,.489-2.89Zm1,.118a2.486,2.486,0,0,0,.448,1.552,1.435,1.435,0,0,0,1.2.585A1.427,1.427,0,0,0,4.34-1.3a2.719,2.719,0,0,0,.446-1.662,2.482,2.482,0,0,0-.454-1.55A1.443,1.443,0,0,0,3.126-5.1a1.427,1.427,0,0,0-1.187.585A2.7,2.7,0,0,0,1.488-2.841ZM10.613-.575a2.111,2.111,0,0,1-1.7.682A1.807,1.807,0,0,1,7.5-.432,2.336,2.336,0,0,1,7-2.03V-5.812H8v3.754Q8-.736,9.072-.736a1.487,1.487,0,0,0,1.515-.849V-5.812h.994V0h-.945Zm3.824-6.644v1.407h1.085v.768H14.438v3.609a.807.807,0,0,0,.145.524.61.61,0,0,0,.494.175A2.406,2.406,0,0,0,15.549-.8V0a2.9,2.9,0,0,1-.763.107,1.237,1.237,0,0,1-1-.4,1.731,1.731,0,0,1-.338-1.144v-3.6H12.386v-.768h1.058V-7.219Z" transform="translate(10 361) rotate(-90)"/>
    <path id="Path_12" data-name="Path 12" d="M2.669-1.348,4.109-5.812H5.124L3.04,0H2.283L.177-5.812H1.192ZM6.279.671H5.425L8.69-7.82h.849ZM10.35-2.959A3.433,3.433,0,0,1,10.686-4.5a2.5,2.5,0,0,1,.935-1.053,2.544,2.544,0,0,1,1.367-.371,2.451,2.451,0,0,1,1.92.822,3.162,3.162,0,0,1,.733,2.186v.07a3.462,3.462,0,0,1-.325,1.523,2.467,2.467,0,0,1-.929,1.05A2.573,2.573,0,0,1,13,.107a2.445,2.445,0,0,1-1.915-.822A3.146,3.146,0,0,1,10.35-2.89Zm1,.118A2.486,2.486,0,0,0,11.8-1.289,1.435,1.435,0,0,0,13-.7,1.427,1.427,0,0,0,14.2-1.3a2.719,2.719,0,0,0,.446-1.662,2.482,2.482,0,0,0-.454-1.55A1.443,1.443,0,0,0,12.987-5.1a1.427,1.427,0,0,0-1.187.585A2.7,2.7,0,0,0,11.349-2.841ZM19.218-.7a1.431,1.431,0,0,0,.929-.322,1.134,1.134,0,0,0,.44-.806h.94a1.8,1.8,0,0,1-.344.951,2.264,2.264,0,0,1-.846.72,2.441,2.441,0,0,1-1.12.269A2.394,2.394,0,0,1,17.33-.685a3.155,3.155,0,0,1-.7-2.167v-.167a3.5,3.5,0,0,1,.312-1.509,2.373,2.373,0,0,1,.894-1.026,2.54,2.54,0,0,1,1.378-.365,2.331,2.331,0,0,1,1.625.585,2.092,2.092,0,0,1,.69,1.52h-.94a1.369,1.369,0,0,0-.427-.927,1.328,1.328,0,0,0-.948-.363,1.391,1.391,0,0,0-1.174.545,2.56,2.56,0,0,0-.416,1.576v.188a2.509,2.509,0,0,0,.414,1.547A1.4,1.4,0,0,0,19.218-.7Zm4.775-6.515v1.407h1.085v.768H23.993v3.609a.807.807,0,0,0,.145.524.61.61,0,0,0,.494.175A2.406,2.406,0,0,0,25.1-.8V0a2.9,2.9,0,0,1-.763.107,1.237,1.237,0,0,1-1-.4A1.731,1.731,0,0,1,23-1.439v-3.6H21.941v-.768H23V-7.219Z" transform="translate(11 334) rotate(-90)"/>
    <path id="Path_11" data-name="Path 11" d="M1.241,0V-5.043H.322v-.768h.918v-.6a1.979,1.979,0,0,1,.5-1.445,1.887,1.887,0,0,1,1.413-.51,2.624,2.624,0,0,1,.682.091l-.054.8a2.854,2.854,0,0,0-.537-.048.97.97,0,0,0-.747.283,1.147,1.147,0,0,0-.263.811v.614H3.475v.768H2.234V0ZM5.505-5.812l.027.645a2.146,2.146,0,0,1,1.724-.752,1.662,1.662,0,0,1,1.66.935,2.2,2.2,0,0,1,.755-.677,2.229,2.229,0,0,1,1.1-.258q1.912,0,1.944,2.025V0H11.72V-3.835a1.334,1.334,0,0,0-.285-.932,1.254,1.254,0,0,0-.956-.309,1.318,1.318,0,0,0-.918.33,1.34,1.34,0,0,0-.424.889V0h-1V-3.808A1.109,1.109,0,0,0,6.9-5.076a1.329,1.329,0,0,0-1.337.833V0H4.565V-5.812Z" transform="translate(11 298) rotate(-90)"/>
    <path id="Path_7" data-name="Path 7" d="M5.9-1.37,7.015-5.812h.994L6.316,0H5.511L4.1-4.4,2.723,0H1.917L.231-5.812h.988L2.363-1.461,3.717-5.812h.8ZM12.606,0a2.087,2.087,0,0,1-.14-.612,2.217,2.217,0,0,1-1.654.72A2.051,2.051,0,0,1,9.4-.379a1.573,1.573,0,0,1-.551-1.233,1.643,1.643,0,0,1,.69-1.41,3.254,3.254,0,0,1,1.942-.5h.967V-3.98a1.116,1.116,0,0,0-.312-.83,1.252,1.252,0,0,0-.918-.309,1.449,1.449,0,0,0-.892.269.791.791,0,0,0-.36.65h-1a1.371,1.371,0,0,1,.309-.841,2.108,2.108,0,0,1,.838-.642,2.819,2.819,0,0,1,1.163-.236,2.3,2.3,0,0,1,1.574.5,1.812,1.812,0,0,1,.591,1.383v2.675a3.27,3.27,0,0,0,.2,1.273V0ZM10.957-.757A1.746,1.746,0,0,0,11.843-1a1.462,1.462,0,0,0,.607-.628V-2.82h-.779q-1.826,0-1.826,1.069a.9.9,0,0,0,.312.73A1.2,1.2,0,0,0,10.957-.757Zm5.881-.591,1.439-4.463h1.015L17.209,0h-.757L14.346-5.812h1.015ZM22.591.107a2.539,2.539,0,0,1-1.923-.776,2.881,2.881,0,0,1-.741-2.076v-.183a3.487,3.487,0,0,1,.33-1.544,2.577,2.577,0,0,1,.924-1.063,2.323,2.323,0,0,1,1.286-.384,2.177,2.177,0,0,1,1.762.747,3.232,3.232,0,0,1,.628,2.138v.414H20.92a2.066,2.066,0,0,0,.5,1.388A1.579,1.579,0,0,0,22.645-.7a1.731,1.731,0,0,0,.892-.215,2.24,2.24,0,0,0,.639-.569l.607.473A2.44,2.44,0,0,1,22.591.107ZM22.467-5.1a1.325,1.325,0,0,0-1.01.438,2.128,2.128,0,0,0-.5,1.227h2.911v-.075a1.893,1.893,0,0,0-.408-1.174A1.248,1.248,0,0,0,22.467-5.1Z" transform="translate(10 165) rotate(-90)"/>
    <path id="Path_8" data-name="Path 8" d="M5.661-2.841A3.48,3.48,0,0,1,5.054-.7,1.945,1.945,0,0,1,3.411.107,2.131,2.131,0,0,1,1.746-.564v2.8H.752V-5.812H1.66l.048.645a2.047,2.047,0,0,1,1.687-.752,1.982,1.982,0,0,1,1.657.79,3.518,3.518,0,0,1,.61,2.2Zm-.994-.113a2.568,2.568,0,0,0-.419-1.552A1.35,1.35,0,0,0,3.1-5.076a1.461,1.461,0,0,0-1.354.8V-1.5A1.464,1.464,0,0,0,3.11-.7,1.343,1.343,0,0,0,4.246-1.27,2.8,2.8,0,0,0,4.667-2.954Zm7.4,1.584,1.117-4.442h.994L12.488,0h-.806L10.27-4.4,8.895,0H8.089L6.4-5.812h.988L8.535-1.461,9.888-5.812h.8Z" transform="translate(10 198) rotate(-90)"/>
    <path id="Path_1" data-name="Path 1" d="M248.163,245.663l2.25,4.087" transform="translate(-230)" fill="none" stroke="#707070" stroke-width="1"/>
    <path id="Path_10" data-name="Path 10" d="M5.661-2.841A3.48,3.48,0,0,1,5.054-.7,1.945,1.945,0,0,1,3.411.107,2.131,2.131,0,0,1,1.746-.564v2.8H.752V-5.812H1.66l.048.645a2.047,2.047,0,0,1,1.687-.752,1.982,1.982,0,0,1,1.657.79,3.518,3.518,0,0,1,.61,2.2Zm-.994-.113a2.568,2.568,0,0,0-.419-1.552A1.35,1.35,0,0,0,3.1-5.076a1.461,1.461,0,0,0-1.354.8V-1.5A1.464,1.464,0,0,0,3.11-.7,1.343,1.343,0,0,0,4.246-1.27,2.8,2.8,0,0,0,4.667-2.954Zm7.4,1.584,1.117-4.442h.994L12.488,0h-.806L10.27-4.4,8.895,0H8.089L6.4-5.812h.988L8.535-1.461,9.888-5.812h.8Zm4.055-4.442.027.645a2.146,2.146,0,0,1,1.724-.752,1.662,1.662,0,0,1,1.66.935,2.2,2.2,0,0,1,.755-.677,2.229,2.229,0,0,1,1.1-.258q1.912,0,1.944,2.025V0h-.994V-3.835a1.334,1.334,0,0,0-.285-.932,1.254,1.254,0,0,0-.956-.309,1.318,1.318,0,0,0-.918.33,1.34,1.34,0,0,0-.424.889V0h-1V-3.808a1.109,1.109,0,0,0-1.241-1.268,1.329,1.329,0,0,0-1.337.833V0h-.994V-5.812Z" transform="translate(11 273) rotate(-90)"/>
    <path id="Path_2" data-name="Path 2" d="M379.529,281.814l6.775-6.775V228.471l-3.488-3.488" transform="translate(-345)" fill="none" stroke="#707070" stroke-width="1"/>
    <path id="Path_9" data-name="Path 9" d="M1.241,0V-5.043H.322v-.768h.918v-.6a1.979,1.979,0,0,1,.5-1.445,1.887,1.887,0,0,1,1.413-.51,2.624,2.624,0,0,1,.682.091l-.054.8a2.854,2.854,0,0,0-.537-.048.97.97,0,0,0-.747.283,1.147,1.147,0,0,0-.263.811v.614H3.475v.768H2.234V0ZM5.505-5.812l.027.645a2.146,2.146,0,0,1,1.724-.752,1.662,1.662,0,0,1,1.66.935,2.2,2.2,0,0,1,.755-.677,2.229,2.229,0,0,1,1.1-.258q1.912,0,1.944,2.025V0H11.72V-3.835a1.334,1.334,0,0,0-.285-.932,1.254,1.254,0,0,0-.956-.309,1.318,1.318,0,0,0-.918.33,1.34,1.34,0,0,0-.424.889V0h-1V-3.808A1.109,1.109,0,0,0,6.9-5.076a1.329,1.329,0,0,0-1.337.833V0H4.565V-5.812Z" transform="translate(11 225) rotate(-90)"/>
    <path id="Path_6" data-name="Path 6" d="M.584-.634A.882.882,0,0,1,.233-.8a.326.326,0,0,1-.11-.25.344.344,0,0,1,.134-.278.534.534,0,0,1,.349-.11.583.583,0,0,1,.261.057.43.43,0,0,1,.178.156.4.4,0,0,1,.063.218H.92a.26.26,0,0,0-.082-.2.334.334,0,0,0-.231-.074.342.342,0,0,0-.216.061.2.2,0,0,0-.078.17A.184.184,0,0,0,.386-.91.723.723,0,0,0,.637-.8a1.165,1.165,0,0,1,.277.11.421.421,0,0,1,.148.14.358.358,0,0,1,.048.188.332.332,0,0,1-.135.277.575.575,0,0,1-.36.1A.668.668,0,0,1,.343-.037a.46.46,0,0,1-.2-.154A.375.375,0,0,1,.078-.412H.267a.245.245,0,0,0,.1.2.4.4,0,0,0,.254.075A.369.369,0,0,0,.844-.194.2.2,0,0,0,.923-.359.193.193,0,0,0,.85-.521.844.844,0,0,0,.584-.634Zm.7.1a.62.62,0,0,1,.114-.394A.37.37,0,0,1,1.7-1.076.37.37,0,0,1,2-.95L2-1.057H2.17V.406H1.989V-.1A.379.379,0,0,1,1.7.02a.364.364,0,0,1-.305-.149.634.634,0,0,1-.114-.4Zm.181.021a.47.47,0,0,0,.077.285.244.244,0,0,0,.207.1.271.271,0,0,0,.246-.143V-.788a.271.271,0,0,0-.244-.14.246.246,0,0,0-.208.1A.512.512,0,0,0,1.46-.517ZM3.112-.1A.384.384,0,0,1,2.8.02a.328.328,0,0,1-.257-.1.425.425,0,0,1-.089-.291v-.687h.181v.683q0,.24.2.24a.27.27,0,0,0,.275-.154v-.769h.181V0H3.116Zm.646.1H3.578V-1.057h.181Zm-.2-1.337a.108.108,0,0,1,.027-.074.1.1,0,0,1,.08-.03.1.1,0,0,1,.08.03.107.107,0,0,1,.027.074.1.1,0,0,1-.027.073.1.1,0,0,1-.08.029.1.1,0,0,1-.08-.029A.1.1,0,0,1,3.563-1.337Zm.655.28.006.133a.385.385,0,0,1,.316-.152q.335,0,.338.378V0H4.7V-.7a.243.243,0,0,0-.052-.169.209.209,0,0,0-.16-.055.261.261,0,0,0-.154.047.318.318,0,0,0-.1.123V0H4.048V-1.057Zm1.228.567-.113.118V0H5.152V-1.5h.181v.907l.1-.116.329-.348h.22l-.411.441L6.026,0H5.814Zm1.064.225.246-.792H6.95L6.525.163q-.1.264-.313.264l-.034,0L6.11.411V.265l.049,0A.24.24,0,0,0,6.3.231.269.269,0,0,0,6.387.1l.04-.107L6.05-1.057h.2Zm1.313.111H8.5V0H7.635V-1.422h.188ZM9.335,0A.38.38,0,0,1,9.31-.111a.4.4,0,0,1-.3.131.373.373,0,0,1-.256-.088.286.286,0,0,1-.1-.224.3.3,0,0,1,.125-.256.592.592,0,0,1,.353-.091h.176V-.724A.2.2,0,0,0,9.25-.875a.228.228,0,0,0-.167-.056.263.263,0,0,0-.162.049.144.144,0,0,0-.065.118H8.674A.249.249,0,0,1,8.73-.917a.383.383,0,0,1,.152-.117.513.513,0,0,1,.211-.043.418.418,0,0,1,.286.091.329.329,0,0,1,.107.251v.486a.6.6,0,0,0,.037.231V0Zm-.3-.138A.318.318,0,0,0,9.2-.182.266.266,0,0,0,9.307-.3V-.513H9.165q-.332,0-.332.194a.164.164,0,0,0,.057.133A.218.218,0,0,0,9.035-.138Zm1.63-.379a.628.628,0,0,1-.111.389.356.356,0,0,1-.3.147.368.368,0,0,1-.31-.142L9.937,0H9.771V-1.5h.181v.56a.366.366,0,0,1,.3-.136.358.358,0,0,1,.3.146.647.647,0,0,1,.11.4Zm-.181-.021a.488.488,0,0,0-.071-.285.236.236,0,0,0-.205-.1.265.265,0,0,0-.257.166V-.3a.273.273,0,0,0,.259.166.235.235,0,0,0,.2-.1A.519.519,0,0,0,10.484-.537Zm1.023.257a.133.133,0,0,0-.055-.114.531.531,0,0,0-.192-.07.91.91,0,0,1-.218-.07.31.31,0,0,1-.119-.1.234.234,0,0,1-.039-.135.274.274,0,0,1,.11-.22.429.429,0,0,1,.281-.09.442.442,0,0,1,.292.093.3.3,0,0,1,.112.237H11.5a.163.163,0,0,0-.063-.128.236.236,0,0,0-.159-.054.247.247,0,0,0-.154.043.135.135,0,0,0-.056.112.11.11,0,0,0,.052.1A.637.637,0,0,0,11.3-.61a.974.974,0,0,1,.219.072.32.32,0,0,1,.125.1.249.249,0,0,1,.041.144.27.27,0,0,1-.113.227.475.475,0,0,1-.294.085.532.532,0,0,1-.225-.045A.365.365,0,0,1,10.9-.151a.3.3,0,0,1-.055-.174h.181a.187.187,0,0,0,.073.144.282.282,0,0,0,.179.053.291.291,0,0,0,.165-.042A.128.128,0,0,0,11.508-.28Z" transform="translate(16.5 17.5)"/>
  </g>
</svg>
