<svg id="Layer_1" data-name="Layer 1" xmlns="http://www.w3.org/2000/svg" width="24" height="24" viewBox="0 0 24 24">
  <title>AC-DC</title>
  <g>
    <path d="M4.94,8a15.93,15.93,0,0,1,2.22-.16,4.6,4.6,0,0,1,3.27,1,3.74,3.74,0,0,1,1.14,2.91,4.28,4.28,0,0,1-1.16,3.14,5,5,0,0,1-3.57,1.16,14.72,14.72,0,0,1-1.9-.1Zm1,7.15A6.45,6.45,0,0,0,7,15.22a3.11,3.11,0,0,0,3.44-3.43c0-1.91-1.07-3.12-3.27-3.12A6,6,0,0,0,6,8.78Z" style="fill: #3080ee;stroke: #307dee;stroke-miterlimit: 10"/>
    <path d="M18.58,15.73a5.2,5.2,0,0,1-2.13.38,3.78,3.78,0,0,1-4-4.09,4,4,0,0,1,4.22-4.25,4.37,4.37,0,0,1,1.92.36L18.34,9a3.66,3.66,0,0,0-1.63-.34A3,3,0,0,0,13.56,12a2.94,2.94,0,0,0,3.1,3.25,4.27,4.27,0,0,0,1.71-.33Z" style="fill: #3080ee;stroke: #307dee;stroke-miterlimit: 10"/>
  </g>
  <line x1="3" y1="5" x2="3" y2="19" style="fill: none;stroke: #b3b3b3;stroke-miterlimit: 10"/>
  <line x1="20.5" y1="5" x2="20.5" y2="19" style="fill: none;stroke: #b3b3b3;stroke-miterlimit: 10"/>
  <line x1="3.5" y1="5.5" x2="20.5" y2="5.5" style="fill: none;stroke: #b3b3b3;stroke-miterlimit: 10"/>
  <line x1="3.5" y1="18.5" x2="20.5" y2="18.5" style="fill: none;stroke: #b3b3b3;stroke-miterlimit: 10"/>
</svg>
