<svg id="Layer_1" data-name="Layer 1" xmlns="http://www.w3.org/2000/svg" width="390" height="380" viewBox="0 0 390 380">
  <title>mix8_panel</title>
  <rect y="-0.5" width="390" height="380" style="fill: #e6e6e6"/>
  <g>
    <path d="M126,26.3l-.07.06-6-7.55L117,22.74l-2.81-3.93-5.92,7.37-.13-.08,5.06-13.19,3.8,5,3.81-5Z"/>
    <path d="M130.2,17.93l-1.94,7.4h-.2l-2-7.4Zm.14-2.63-1.54.47.41,1.61-1-1.36-1.37.87,1-1.3-1.24-1,1.53.52.61-1.49,0,1.61Z"/>
    <path d="M140.3,21.38l-3,1.6,1.89,2.49-.12.17-3.39-1.79-3.36,1.79-.13-.17L134.05,23l-3-1.6,2.59-3.18,2,2.7,2.06-2.7Z"/>
    <path d="M149,20.61a1.87,1.87,0,0,1-.85,1.73,6.65,6.65,0,0,1-3.24,1.3,10.71,10.71,0,0,1-1.31.12,1.61,1.61,0,0,0,1.38.6,6.22,6.22,0,0,0,3.19-1.14l.4.49a5.79,5.79,0,0,1-1.95,1,11,11,0,0,1-2.81.57,5,5,0,0,1-2.57-.41A2.09,2.09,0,0,1,140.05,23a2.9,2.9,0,0,1,1.36-2.43,7.17,7.17,0,0,1,3.12-1.35,8.22,8.22,0,0,1,1.58-.16,4.06,4.06,0,0,1,2,.45A1.63,1.63,0,0,1,149,20.61Zm-3.62-1a2.24,2.24,0,0,0-1.28.45,2.6,2.6,0,0,0-1.29,2.09.83.83,0,0,0,.93.94,2.31,2.31,0,0,0,1.3-.47,3.22,3.22,0,0,0,.93-1,2.1,2.1,0,0,0,.36-1.09A.84.84,0,0,0,145.41,19.62Z"/>
    <path d="M155.33,22.18l-3,.18-.9,3.65h-.25l-1.73-7h3.71l-.35,1.39L155.33,19Z"/>
    <path d="M159,20h-2.92V18.56H159Z"/>
    <path d="M170,21.77a3.07,3.07,0,0,1-1.45,2.39,7.31,7.31,0,0,1-3.51,1.39,9,9,0,0,1-1,.07,5.27,5.27,0,0,1-2.84-.71,2.12,2.12,0,0,1-1.12-1.83,2.74,2.74,0,0,1,.86-1.89,6.15,6.15,0,0,1,2.27-1.44A4.41,4.41,0,0,1,161,18.9a2,2,0,0,1-.87-1.65,3.06,3.06,0,0,1,1.46-2.41,7.31,7.31,0,0,1,3.51-1.37,7.09,7.09,0,0,1,1-.07,5.13,5.13,0,0,1,2.82.71A2.09,2.09,0,0,1,170,15.93a2.7,2.7,0,0,1-.87,1.88,6.08,6.08,0,0,1-2.26,1.45,4.46,4.46,0,0,1,2.27.84A2,2,0,0,1,170,21.77Zm-3.38-4.38a3.38,3.38,0,0,0,.27-1.31A1.8,1.8,0,0,0,166,14.3a1.17,1.17,0,0,0-.58-.15,1.72,1.72,0,0,0-1.11.45,3.26,3.26,0,0,0-.87,1.19,3.38,3.38,0,0,0-.27,1.31,1.83,1.83,0,0,0,.88,1.79,1.3,1.3,0,0,0,.58.14,1.75,1.75,0,0,0,1.12-.45A3.23,3.23,0,0,0,166.65,17.39Zm0,5.83a3.25,3.25,0,0,0,.27-1.29,1.82,1.82,0,0,0-.88-1.8,1.17,1.17,0,0,0-.58-.15,1.72,1.72,0,0,0-1.11.45,3.31,3.31,0,0,0-1.14,2.49,1.81,1.81,0,0,0,.88,1.78,1.21,1.21,0,0,0,.6.14,1.7,1.7,0,0,0,1.1-.44A3,3,0,0,0,166.65,23.22Z"/>
    <path d="M189.73,11.47l-6.94,4.65L188,24.86l-10.83,3.28-.06-.16L184,23.37l-5.2-8.73,10.92-3.3Z"/>
    <path d="M199.3,29h-4.09l.74-4.39a7.7,7.7,0,0,1-3.49.83,4.15,4.15,0,0,1-2.34-.6,1.8,1.8,0,0,1-.9-1.58,3.5,3.5,0,0,1,1.46-2.56A8.09,8.09,0,0,1,194.21,19a6.52,6.52,0,0,1,2.73-.11l.22-1.35h.2Zm-2.48-9.43a5.2,5.2,0,0,0-1.21-.15,3.16,3.16,0,0,0-2.21.83,2.79,2.79,0,0,0-.87,2.2,2,2,0,0,0,.49,1.34,1.59,1.59,0,0,0,1.24.53,3.78,3.78,0,0,0,1.86-.61Z"/>
    <path d="M207.35,25.46H204.9l.29-2.22a4.88,4.88,0,0,1-4.11,2.4,4.17,4.17,0,0,1-1.26-.18l2.45-6.84.27.05a9.08,9.08,0,0,0-.12,1.49c0,1.31.3,2,.9,2a.93.93,0,0,0,.34-.08,3.3,3.3,0,0,0,1.55-1.58,6.65,6.65,0,0,0,.81-2.18h.21Z"/>
    <path d="M212,17.93l-1.95,7.4h-.19l-1.95-7.4Zm.14-2.63-1.54.47.4,1.61L210.09,16l-1.37.87,1-1.3-1.24-1,1.53.52.61-1.49,0,1.61Z"/>
    <path d="M220.29,18.47l-2.45,6.84-.27,0a9.1,9.1,0,0,0,.13-1.5c0-1.3-.3-2-.9-2a1.09,1.09,0,0,0-.34.07,3.29,3.29,0,0,0-1.55,1.59,6.48,6.48,0,0,0-.83,2.18h-.2l-1.12-7.17h2.44l-.28,2.22a4.89,4.89,0,0,1,4.11-2.4A4.36,4.36,0,0,1,220.29,18.47Z"/>
    <path d="M229.27,19l-3.74,2.66,2.37,4.23-.16.24-4.18-2.9L223,26.39h-.21l-2-11.5H225l-1.24,7.27L225.92,19Z"/>
    <path d="M238.83,20.56l-7.74,8.73-.16-.11,1.67-4.1-4.35-4.79,3.67-1.82,1,5.74,2.39-5.83Z"/>
    <path d="M253.75,24.74h-4.64l.16,1-4,.6.26-1.62h-2.76l0-.22,2.95-.88,1.53-10.28h.13l1.45,9.34,5-1.49Z"/>
    <path d="M264.16,25.26h-4l.35-1.51a8.28,8.28,0,0,1-2.15,1.15,5.78,5.78,0,0,1-1.92.36,2.69,2.69,0,0,1-1.61-.44,1.44,1.44,0,0,1-.61-1.22,3.5,3.5,0,0,1,1.22-2.38,7.44,7.44,0,0,1,2.92-1.83,6,6,0,0,1,1.95-.36,2.89,2.89,0,0,1,1.2.22l0-.22h.58ZM260.43,22a2.87,2.87,0,0,0,.21-1c0-.8-.33-1.21-1-1.21a2.17,2.17,0,0,0-1.41.66,4.07,4.07,0,0,0-1.1,1.58,2.82,2.82,0,0,0-.21,1c0,.79.33,1.19,1,1.19a2.2,2.2,0,0,0,1.41-.65A4,4,0,0,0,260.43,22Z"/>
    <path d="M273.44,21A3.45,3.45,0,0,1,272,23.49a8.06,8.06,0,0,1-3.52,1.75,7.69,7.69,0,0,1-1.68.2,5.37,5.37,0,0,1-1.29-.15l-.15.85h-.21l-1.95-11.5h4.11l-.87,5.09a8.07,8.07,0,0,1,3.76-1,4.18,4.18,0,0,1,2.35.6A1.84,1.84,0,0,1,273.44,21Zm-3.31.79a2,2,0,0,0-.49-1.34,1.54,1.54,0,0,0-1.24-.53,4,4,0,0,0-2.14.79l-.65,3.89a5.13,5.13,0,0,0,1.44.23,3.1,3.1,0,0,0,2.22-.86A2.81,2.81,0,0,0,270.13,21.75Z"/>
    <path d="M281.63,24.88l-6.89,1.71-.06-.11,2.92-2.28-3.73-4.49L280.44,18l0,.09-2.7,2.23Z"/>
  </g>
</svg>
