<svg xmlns="http://www.w3.org/2000/svg" xmlns:xlink="http://www.w3.org/1999/xlink" width="270" height="380" viewBox="0 0 270 380">
  <defs>
    <clipPath id="clip-sines-panel">
      <rect width="270" height="380"/>
    </clipPath>
  </defs>
  <g id="sines-panel" clip-path="url(#clip-sines-panel)">
    <rect width="270" height="380" fill="#e6e6e6"/>
    <path id="Path_9" data-name="Path 9" d="M2.468-3.9V0H1.155V-9.953H4.826a3.688,3.688,0,0,1,2.56.834,2.827,2.827,0,0,1,.926,2.208,2.79,2.79,0,0,1-.906,2.232A3.853,3.853,0,0,1,4.813-3.9Zm0-1.073H4.826a2.358,2.358,0,0,0,1.613-.5A1.815,1.815,0,0,0,7-6.9a1.876,1.876,0,0,0-.561-1.424A2.209,2.209,0,0,0,4.9-8.88H2.468ZM12.77.137a3.232,3.232,0,0,1-2.447-.988,3.666,3.666,0,0,1-.943-2.642v-.232A4.438,4.438,0,0,1,9.8-5.691a3.28,3.28,0,0,1,1.176-1.354,2.956,2.956,0,0,1,1.637-.489,2.77,2.77,0,0,1,2.242.95,4.114,4.114,0,0,1,.8,2.721v.526H10.644a2.629,2.629,0,0,0,.639,1.767A2.009,2.009,0,0,0,12.838-.9a2.2,2.2,0,0,0,1.135-.273,2.851,2.851,0,0,0,.813-.725l.772.6A3.106,3.106,0,0,1,12.77.137Zm-.157-6.631a1.687,1.687,0,0,0-1.285.557,2.708,2.708,0,0,0-.643,1.562H14.39v-.1a2.409,2.409,0,0,0-.52-1.494A1.588,1.588,0,0,0,12.612-6.494Zm8.08.232a3.79,3.79,0,0,0-.622-.048,1.667,1.667,0,0,0-1.688,1.06V0H17.117V-7.4h1.23l.021.854a1.969,1.969,0,0,1,1.764-.991,1.292,1.292,0,0,1,.561.1Zm4,5.366a1.822,1.822,0,0,0,1.183-.41,1.443,1.443,0,0,0,.561-1.025h1.2a2.293,2.293,0,0,1-.437,1.21,2.881,2.881,0,0,1-1.077.916,3.107,3.107,0,0,1-1.425.342,3.047,3.047,0,0,1-2.4-1.008A4.016,4.016,0,0,1,21.4-3.63v-.212a4.453,4.453,0,0,1,.4-1.921,3.02,3.02,0,0,1,1.138-1.306,3.233,3.233,0,0,1,1.753-.465,2.966,2.966,0,0,1,2.068.745,2.663,2.663,0,0,1,.878,1.935h-1.2a1.743,1.743,0,0,0-.543-1.179,1.691,1.691,0,0,0-1.207-.461,1.77,1.77,0,0,0-1.494.694,3.259,3.259,0,0,0-.53,2.006v.239a3.194,3.194,0,0,0,.526,1.969A1.779,1.779,0,0,0,24.691-.9Z" transform="translate(191 64)"/>
    <path id="Path_8" data-name="Path 8" d="M8.477-3.158A3.662,3.662,0,0,1,7.311-.721,3.82,3.82,0,0,1,4.7.137,3.507,3.507,0,0,1,1.876-1.128,5.088,5.088,0,0,1,.813-4.512v-.957a5.671,5.671,0,0,1,.5-2.44,3.7,3.7,0,0,1,1.4-1.617,3.911,3.911,0,0,1,2.105-.564A3.6,3.6,0,0,1,7.362-9.2,3.706,3.706,0,0,1,8.477-6.754H7.157a2.86,2.86,0,0,0-.742-1.728,2.244,2.244,0,0,0-1.6-.535,2.348,2.348,0,0,0-1.972.93,4.271,4.271,0,0,0-.714,2.648v.965A4.391,4.391,0,0,0,2.81-1.894,2.187,2.187,0,0,0,4.7-.937a2.526,2.526,0,0,0,1.678-.5,2.75,2.75,0,0,0,.776-1.726ZM11.443,0H10.179V-10.5h1.265Zm3.4,0H13.576V-7.4h1.265ZM13.474-9.358a.755.755,0,0,1,.188-.52.706.706,0,0,1,.557-.212.717.717,0,0,1,.561.212.747.747,0,0,1,.191.52.722.722,0,0,1-.191.513.73.73,0,0,1-.561.205.718.718,0,0,1-.557-.205A.73.73,0,0,1,13.474-9.358ZM19.831-.9a1.822,1.822,0,0,0,1.183-.41,1.443,1.443,0,0,0,.561-1.025h1.2a2.293,2.293,0,0,1-.437,1.21,2.881,2.881,0,0,1-1.077.916,3.107,3.107,0,0,1-1.425.342,3.047,3.047,0,0,1-2.4-1.008,4.016,4.016,0,0,1-.892-2.758v-.212a4.453,4.453,0,0,1,.4-1.921,3.02,3.02,0,0,1,1.138-1.306,3.233,3.233,0,0,1,1.753-.465,2.966,2.966,0,0,1,2.068.745,2.663,2.663,0,0,1,.878,1.935h-1.2a1.743,1.743,0,0,0-.543-1.179,1.691,1.691,0,0,0-1.207-.461,1.77,1.77,0,0,0-1.494.694,3.259,3.259,0,0,0-.53,2.006v.239a3.194,3.194,0,0,0,.526,1.969A1.779,1.779,0,0,0,19.831-.9Zm6.426-2.529-.793.827V0H24.2V-10.5h1.265v6.351l.677-.813,2.3-2.434h1.538L27.1-4.307,30.317,0H28.834Z" transform="translate(102 64)"/>
    <path id="Path_4" data-name="Path 4" d="M16.522-4.488a12.825,12.825,0,0,1-1.5.418,11.626,11.626,0,0,1,.55,3.1q0,2.442-1.694,2.442A4.786,4.786,0,0,1,10.956,0q-.66-.594-1.1-1.078A15.5,15.5,0,0,1,8.734.022,4.654,4.654,0,0,1,5.852,1.474q-1.716,0-1.716-2.464a12.191,12.191,0,0,1,.55-3.08,13.458,13.458,0,0,1-1.5-.418Q.264-5.478.264-7.062q0-1.562,2.926-2.552.528-.176,1.5-.418a11.355,11.355,0,0,1-.55-3.058q0-2.464,1.716-2.464A4.654,4.654,0,0,1,8.734-14.1,11.1,11.1,0,0,1,9.856-13a12.964,12.964,0,0,1,1.1-1.1,4.815,4.815,0,0,1,2.926-1.452q1.694,0,1.694,2.442a10.861,10.861,0,0,1-.55,3.08q.528.132,1.5.418,2.948.99,2.948,2.552Q19.47-5.478,16.522-4.488ZM14.784-13.2q0-1.562-.968-1.562a4.03,4.03,0,0,0-2.31,1.276q-.66.594-1.122,1.078a18.264,18.264,0,0,1,1.474,1.914,18.308,18.308,0,0,1,2.376.308A10.725,10.725,0,0,0,14.784-13.2Zm1.474,7.942q2.376-.792,2.376-1.8,0-.99-2.376-1.782-.528-.176-1.5-.418a20.081,20.081,0,0,1-.924,2.222,19.075,19.075,0,0,1,.924,2.2A11.907,11.907,0,0,0,16.258-5.258ZM13.97-9.416q-.99-.176-1.562-.22a15.689,15.689,0,0,1,.968,1.672Q13.706-8.69,13.97-9.416ZM10.824-10.56q-.44-.616-.968-1.232-.506.616-.968,1.232Q9.856-10.6,10.824-10.56ZM9.306-12.408a11.119,11.119,0,0,0-1.1-1.078,3.949,3.949,0,0,0-2.288-1.276q-.99,0-.99,1.584a11.243,11.243,0,0,0,.55,2.992,20.657,20.657,0,0,1,2.376-.308A22.53,22.53,0,0,1,9.306-12.408ZM13.97-4.664q-.264-.726-.594-1.452a15.689,15.689,0,0,1-.968,1.672Q13.464-4.576,13.97-4.664ZM12.936-7.04A19.534,19.534,0,0,0,11.4-9.724q-.748-.044-1.54-.044-.77,0-1.54.044A24.972,24.972,0,0,0,6.754-7.04,24.972,24.972,0,0,0,8.316-4.356q.77.044,1.54.044.792,0,1.54-.044A19.534,19.534,0,0,0,12.936-7.04Zm-5.654-2.6q-.528.044-1.54.22.176.484.572,1.452Q6.622-8.536,7.282-9.636Zm6.952,5.742q-1.232.22-2.376.308a15.715,15.715,0,0,1-1.474,1.892q.638.66,1.122,1.1A4.054,4.054,0,0,0,13.816.66q.968,0,.968-1.562A10.682,10.682,0,0,0,14.234-3.894Zm-3.41.374q-.968.044-1.936,0,.462.616.968,1.232Q10.384-2.9,10.824-3.52ZM7.282-4.444q-.66-1.1-.968-1.672-.4.968-.572,1.452Q6.314-4.576,7.282-4.444Zm-1.43-2.6q-.572-1.254-.9-2.222-.506.132-1.518.418-2.354.792-2.354,1.782,0,1.012,2.354,1.8.814.264,1.518.418A22.477,22.477,0,0,1,5.852-7.04ZM9.306-1.694A17.68,17.68,0,0,1,7.854-3.586q-1.078-.088-2.376-.308A11.243,11.243,0,0,0,4.928-.9q0,1.562.99,1.562A3.971,3.971,0,0,0,8.206-.594,12.974,12.974,0,0,0,9.306-1.694ZM11.352-7.04a1.44,1.44,0,0,1-.44,1.056,1.44,1.44,0,0,1-1.056.44A1.44,1.44,0,0,1,8.8-5.984,1.44,1.44,0,0,1,8.36-7.04,1.43,1.43,0,0,1,8.8-8.107a1.459,1.459,0,0,1,1.056-.429,1.44,1.44,0,0,1,1.056.44A1.44,1.44,0,0,1,11.352-7.04Zm15.8,3.278-3.63.22L22.418.924H22.11L20-7.612H24.53l-.418,1.694,3.036-1.694Zm14.388-5.39-3.058,1.32L41.36,2.948l-12.408.286-.022-.176L37.554.2l-.44-1.65A9.779,9.779,0,0,1,31.658.22a5.161,5.161,0,0,1-2.871-.726,2.217,2.217,0,0,1-1.111-1.936,4.265,4.265,0,0,1,1.782-3.124,9.758,9.758,0,0,1,4.29-2.112,8.221,8.221,0,0,1,1.606-.242l-.726-2.662,6.908,1.276ZM35.684-3.058a4.358,4.358,0,0,0,.33-1.65A2.672,2.672,0,0,0,35.64-6.16a1.421,1.421,0,0,0-1.254-.726,2.232,2.232,0,0,0-1.452.627,4.108,4.108,0,0,0-1.122,1.617,4.3,4.3,0,0,0-.33,1.628,2.787,2.787,0,0,0,.374,1.474,1.43,1.43,0,0,0,1.254.7,2.252,2.252,0,0,0,1.452-.616A4.016,4.016,0,0,0,35.684-3.058ZM54.164,0h-4.84l.418-1.848A9.651,9.651,0,0,1,47.124-.44,7.128,7.128,0,0,1,44.77,0,3.264,3.264,0,0,1,42.8-.539a1.739,1.739,0,0,1-.737-1.485,4.294,4.294,0,0,1,1.485-2.915,9.16,9.16,0,0,1,3.575-2.233,7.318,7.318,0,0,1,2.376-.44,3.729,3.729,0,0,1,1.474.264l.044-.264h.7ZM49.61-3.938a3.379,3.379,0,0,0,.264-1.254q0-1.474-1.21-1.474a2.657,2.657,0,0,0-1.716.8,4.974,4.974,0,0,0-1.342,1.925,3.379,3.379,0,0,0-.264,1.254q0,1.452,1.21,1.452a2.652,2.652,0,0,0,1.727-.792A4.934,4.934,0,0,0,49.61-3.938ZM64.086-8.294,61.094.066,60.764,0a10.577,10.577,0,0,0,.154-1.826q0-2.4-1.1-2.4a1.126,1.126,0,0,0-.418.088A4,4,0,0,0,57.508-2.2,8.221,8.221,0,0,0,56.5.462h-.242L54.89-8.294h2.97l-.33,2.706a5.954,5.954,0,0,1,5.016-2.926A5.283,5.283,0,0,1,64.086-8.294Zm4.73,1.826H65.252V-8.184h3.564Zm15.752-8.888L76.626-12.3l2,13.2H74.052l1.98-12.958-6.248,2.4,1.21-4.862,13.552-.946Zm11,7.062L92.576.066,92.246,0A10.577,10.577,0,0,0,92.4-1.826q0-2.4-1.1-2.4a1.126,1.126,0,0,0-.418.088A4,4,0,0,0,88.99-2.2,8.221,8.221,0,0,0,87.978.462h-.242L85.36-13.574h5.016L89.012-5.588a5.954,5.954,0,0,1,5.016-2.926A5.283,5.283,0,0,1,95.568-8.294Zm7.92,4.532-3.63.22L98.758.924H98.45L96.338-7.612h4.532l-.418,1.694,3.036-1.694Zm11.506-1.914a2.265,2.265,0,0,1-1.034,2.112A8.239,8.239,0,0,1,110-1.98a13.9,13.9,0,0,1-1.606.154,1.989,1.989,0,0,0,1.694.726,7.654,7.654,0,0,0,3.894-1.386l.484.594A7.029,7.029,0,0,1,112.09-.66a13.243,13.243,0,0,1-3.432.7,6.153,6.153,0,0,1-3.146-.506,2.567,2.567,0,0,1-1.5-2.332,3.544,3.544,0,0,1,1.672-2.97,8.754,8.754,0,0,1,3.806-1.65,10.325,10.325,0,0,1,1.936-.2,4.916,4.916,0,0,1,2.486.55A1.976,1.976,0,0,1,114.994-5.676Zm-4.422-1.21a2.735,2.735,0,0,0-1.562.55,3.155,3.155,0,0,0-1.584,2.552A1.011,1.011,0,0,0,108.57-2.64a2.764,2.764,0,0,0,1.584-.572,3.962,3.962,0,0,0,1.144-1.2,2.573,2.573,0,0,0,.44-1.331A1.021,1.021,0,0,0,110.572-6.886Zm15.95,1.21a2.265,2.265,0,0,1-1.034,2.112,8.239,8.239,0,0,1-3.96,1.584,13.9,13.9,0,0,1-1.606.154,1.989,1.989,0,0,0,1.694.726,7.654,7.654,0,0,0,3.894-1.386l.484.594A7.029,7.029,0,0,1,123.618-.66a13.243,13.243,0,0,1-3.432.7,6.153,6.153,0,0,1-3.146-.506,2.567,2.567,0,0,1-1.5-2.332,3.544,3.544,0,0,1,1.672-2.97,8.754,8.754,0,0,1,3.806-1.65,10.325,10.325,0,0,1,1.936-.2,4.916,4.916,0,0,1,2.486.55A1.976,1.976,0,0,1,126.522-5.676ZM122.1-6.886a2.735,2.735,0,0,0-1.562.55,3.155,3.155,0,0,0-1.584,2.552A1.011,1.011,0,0,0,120.1-2.64a2.764,2.764,0,0,0,1.584-.572,3.962,3.962,0,0,0,1.144-1.2,2.573,2.573,0,0,0,.44-1.331A1.021,1.021,0,0,0,122.1-6.886Z" transform="translate(72 19)"/>
    <path id="Path_2" data-name="Path 2" d="M-338.971,55.5H-353.85V73.65" transform="translate(521.971 4)" fill="none" stroke="#707070" stroke-width="2"/>
    <path id="Path_3" data-name="Path 3" d="M-255.5,56h21.167V74.15" transform="translate(480.833 3.5)" fill="none" stroke="#707070" stroke-width="2"/>
    <path id="Path_12" data-name="Path 12" d="M3.814-1.494,6.252-8.531h1.23L4.318,0h-1L.164-8.531H1.389ZM8.672.732H7.74L11.3-8.531h.926ZM20.133-3.99A5.277,5.277,0,0,1,19.711-1.8a3.2,3.2,0,0,1-1.2,1.427,3.289,3.289,0,0,1-1.8.492,3.261,3.261,0,0,1-1.787-.5,3.272,3.272,0,0,1-1.21-1.412,5.064,5.064,0,0,1-.442-2.124v-.615A5.215,5.215,0,0,1,13.7-6.7a3.26,3.26,0,0,1,1.21-1.444,3.247,3.247,0,0,1,1.79-.5,3.307,3.307,0,0,1,1.808.5,3.19,3.19,0,0,1,1.2,1.436,5.3,5.3,0,0,1,.422,2.188Zm-1.119-.551A3.825,3.825,0,0,0,18.4-6.87,2.01,2.01,0,0,0,16.7-7.682a1.988,1.988,0,0,0-1.679.812,3.747,3.747,0,0,0-.63,2.253v.627a3.831,3.831,0,0,0,.618,2.312,2,2,0,0,0,1.7.841A1.989,1.989,0,0,0,18.4-1.632a3.809,3.809,0,0,0,.615-2.276Zm5.18,3.773a1.561,1.561,0,0,0,1.014-.352A1.237,1.237,0,0,0,25.688-2h1.025a1.966,1.966,0,0,1-.375,1.037,2.47,2.47,0,0,1-.923.785,2.663,2.663,0,0,1-1.222.293,2.612,2.612,0,0,1-2.06-.864,3.442,3.442,0,0,1-.765-2.364v-.182a3.817,3.817,0,0,1,.34-1.646,2.588,2.588,0,0,1,.976-1.119,2.771,2.771,0,0,1,1.5-.4,2.543,2.543,0,0,1,1.772.639,2.283,2.283,0,0,1,.753,1.658H25.688a1.494,1.494,0,0,0-.466-1.011,1.449,1.449,0,0,0-1.034-.4,1.517,1.517,0,0,0-1.28.595,2.793,2.793,0,0,0-.454,1.72v.205A2.737,2.737,0,0,0,22.9-1.359,1.524,1.524,0,0,0,24.193-.768ZM29.4-7.875V-6.34h1.184V-5.5H29.4v3.937a.88.88,0,0,0,.158.572A.666.666,0,0,0,30.1-.8a2.624,2.624,0,0,0,.516-.07V0a3.161,3.161,0,0,1-.832.116,1.35,1.35,0,0,1-1.1-.439,1.888,1.888,0,0,1-.369-1.248V-5.5H27.164V-6.34h1.154V-7.875Z" transform="translate(105 315)"/>
    <path id="Path_13" data-name="Path 13" d="M7.289-1.119a2.6,2.6,0,0,1-1.21.929A4.887,4.887,0,0,1,4.271.117,3.506,3.506,0,0,1,2.42-.372,3.26,3.26,0,0,1,1.169-1.764,4.806,4.806,0,0,1,.715-3.855V-4.6a4.487,4.487,0,0,1,.9-2.988A3.134,3.134,0,0,1,4.143-8.648a3.237,3.237,0,0,1,2.15.683,2.974,2.974,0,0,1,1,1.937H6.164a1.86,1.86,0,0,0-2.016-1.7,1.991,1.991,0,0,0-1.714.795,3.88,3.88,0,0,0-.589,2.3v.7A3.636,3.636,0,0,0,2.5-1.65,2.127,2.127,0,0,0,4.277-.8a3.921,3.921,0,0,0,1.107-.14,1.713,1.713,0,0,0,.785-.473V-3.328H4.2v-.92H7.289ZM12.908,0a2.277,2.277,0,0,1-.152-.668,2.419,2.419,0,0,1-1.8.785,2.238,2.238,0,0,1-1.538-.53,1.716,1.716,0,0,1-.6-1.345A1.792,1.792,0,0,1,9.565-3.3a3.55,3.55,0,0,1,2.118-.548h1.055v-.5a1.217,1.217,0,0,0-.34-.905,1.366,1.366,0,0,0-1-.337,1.581,1.581,0,0,0-.973.293.863.863,0,0,0-.393.709H8.941A1.5,1.5,0,0,1,9.278-5.5a2.3,2.3,0,0,1,.914-.7,3.075,3.075,0,0,1,1.269-.258,2.506,2.506,0,0,1,1.717.548A1.976,1.976,0,0,1,13.822-4.4v2.918a3.567,3.567,0,0,0,.223,1.389V0Zm-1.8-.826a1.905,1.905,0,0,0,.967-.264,1.6,1.6,0,0,0,.662-.686v-1.3h-.85Q9.9-3.076,9.9-1.91a.987.987,0,0,0,.34.8A1.306,1.306,0,0,0,11.109-.826Zm5.883-7.049V-6.34h1.184V-5.5H16.992v3.937a.88.88,0,0,0,.158.572.666.666,0,0,0,.539.191,2.624,2.624,0,0,0,.516-.07V0a3.161,3.161,0,0,1-.832.116,1.35,1.35,0,0,1-1.1-.439,1.888,1.888,0,0,1-.369-1.248V-5.5H14.754V-6.34h1.154V-7.875ZM22.072.117a2.77,2.77,0,0,1-2.1-.847,3.142,3.142,0,0,1-.809-2.265v-.2a3.8,3.8,0,0,1,.36-1.685,2.811,2.811,0,0,1,1.008-1.16,2.534,2.534,0,0,1,1.4-.419,2.374,2.374,0,0,1,1.922.814,3.526,3.526,0,0,1,.686,2.332v.451H20.25A2.254,2.254,0,0,0,20.8-1.345a1.722,1.722,0,0,0,1.333.577A1.888,1.888,0,0,0,23.1-1a2.444,2.444,0,0,0,.7-.621l.662.516A2.662,2.662,0,0,1,22.072.117Zm-.135-5.684a1.446,1.446,0,0,0-1.1.478,2.321,2.321,0,0,0-.551,1.339h3.176v-.082a2.065,2.065,0,0,0-.445-1.28A1.361,1.361,0,0,0,21.938-5.566Z" transform="translate(165 315)"/>
    <g id="Standard_Output_Jack" data-name="Standard Output Jack" transform="translate(221 304)">
      <rect id="Rectangle_9" data-name="Rectangle 9" width="32" height="50" rx="3"/>
      <path id="Path_14" data-name="Path 14" d="M8.812-4.655A6.157,6.157,0,0,1,8.319-2.1,3.728,3.728,0,0,1,6.925-.437,3.837,3.837,0,0,1,4.819.137,3.8,3.8,0,0,1,2.734-.441,3.817,3.817,0,0,1,1.323-2.088,5.908,5.908,0,0,1,.807-4.566v-.718a6.084,6.084,0,0,1,.5-2.536A3.8,3.8,0,0,1,2.717-9.505a3.788,3.788,0,0,1,2.088-.584,3.858,3.858,0,0,1,2.109.578,3.721,3.721,0,0,1,1.4,1.675,6.187,6.187,0,0,1,.492,2.553ZM7.506-5.3a4.463,4.463,0,0,0-.711-2.717,2.345,2.345,0,0,0-1.989-.947,2.32,2.32,0,0,0-1.958.947,4.371,4.371,0,0,0-.735,2.628v.731a4.469,4.469,0,0,0,.721,2.7,2.329,2.329,0,0,0,1.986.981A2.32,2.32,0,0,0,6.788-1.9,4.444,4.444,0,0,0,7.506-4.56ZM15.148-.731a2.686,2.686,0,0,1-2.167.868,2.3,2.3,0,0,1-1.8-.687,2.974,2.974,0,0,1-.625-2.034V-7.4h1.265v4.778q0,1.682,1.367,1.682a1.893,1.893,0,0,0,1.928-1.08V-7.4h1.265V0h-1.2Zm4.867-8.456V-7.4H21.4v.978H20.016v4.593a1.027,1.027,0,0,0,.185.667.777.777,0,0,0,.629.222,3.062,3.062,0,0,0,.6-.082V0a3.688,3.688,0,0,1-.971.136,1.575,1.575,0,0,1-1.278-.513,2.2,2.2,0,0,1-.431-1.456V-6.419H17.4V-7.4h1.347V-9.187Z" transform="translate(4 13)" fill="#fff"/>
    </g>
    <path id="Path_5" data-name="Path 5" d="M10.656-12.256,4.5-8.128,9.088-.352-.544,2.56l-.048-.144L5.52-1.68.9-9.44l9.712-2.928Zm8.512,15.6H15.536l.656-3.9a6.851,6.851,0,0,1-3.1.736,3.713,3.713,0,0,1-2.08-.528,1.616,1.616,0,0,1-.8-1.408,3.1,3.1,0,0,1,1.3-2.272A7.238,7.238,0,0,1,14.64-5.584a5.905,5.905,0,0,1,2.432-.1l.192-1.2h.176ZM16.96-5.04a4.811,4.811,0,0,0-1.072-.128,2.8,2.8,0,0,0-1.968.736,2.447,2.447,0,0,0-.768,1.952,1.8,1.8,0,0,0,.432,1.192,1.4,1.4,0,0,0,1.1.472,3.356,3.356,0,0,0,1.648-.544ZM26.32.176H24.144L24.4-1.792A4.33,4.33,0,0,1,20.752.336a3.641,3.641,0,0,1-1.12-.16L21.808-5.9l.24.048a7.693,7.693,0,0,0-.112,1.328q0,1.744.8,1.744a.819.819,0,0,0,.3-.064,2.905,2.905,0,0,0,1.376-1.408,5.855,5.855,0,0,0,.72-1.936h.192Zm4.288-9.024-1.376.416.352,1.408-.832-1.184-1.216.768L28.4-8.592,27.3-9.52l1.36.464.544-1.328-.032,1.44ZM30.48-6.512,28.752.064h-.176L26.848-6.512Zm7.344.48L35.648.048,35.408,0a7.693,7.693,0,0,0,.112-1.328q0-1.744-.8-1.744a.819.819,0,0,0-.3.064A2.905,2.905,0,0,0,33.04-1.6,5.979,5.979,0,0,0,32.3.336h-.176l-.992-6.368H33.3l-.24,1.968A4.33,4.33,0,0,1,36.7-6.192,3.842,3.842,0,0,1,37.824-6.032Zm7.984.5L42.48-3.168,44.592.592,44.448.8,40.736-1.776l-.464,2.784H40.08L38.352-9.216H42L40.9-2.752l1.936-2.784Zm9.6,1.36-6.88,7.76-.144-.1L49.872-.16,46-4.416l3.264-1.616.928,5.1L52.32-6.112ZM68.672-.464H64.544l.144.912L61.12.976l.224-1.44H58.9l-.032-.192,2.624-.784,1.36-9.136h.112l1.3,8.3L68.672-3.6ZM77.92,0H74.4l.3-1.344A7.019,7.019,0,0,1,72.8-.32,5.184,5.184,0,0,1,71.088,0a2.374,2.374,0,0,1-1.432-.392,1.265,1.265,0,0,1-.536-1.08,3.123,3.123,0,0,1,1.08-2.12,6.661,6.661,0,0,1,2.6-1.624,5.322,5.322,0,0,1,1.728-.32,2.712,2.712,0,0,1,1.072.192l.032-.192h.512ZM74.608-2.864a2.457,2.457,0,0,0,.192-.912q0-1.072-.88-1.072a1.933,1.933,0,0,0-1.248.584,3.618,3.618,0,0,0-.976,1.4,2.457,2.457,0,0,0-.192.912q0,1.056.88,1.056a1.929,1.929,0,0,0,1.256-.576A3.588,3.588,0,0,0,74.608-2.864Zm12.816-.96a3.092,3.092,0,0,1-1.3,2.256A7.238,7.238,0,0,1,82.992-.016,6.654,6.654,0,0,1,81.5.16,5.017,5.017,0,0,1,80.352.032l-.128.752h-.192L78.3-9.44h3.648l-.768,4.528a7.2,7.2,0,0,1,3.344-.864,3.71,3.71,0,0,1,2.088.536A1.631,1.631,0,0,1,87.424-3.824Zm-2.944.7a1.8,1.8,0,0,0-.432-1.192,1.4,1.4,0,0,0-1.1-.472,3.6,3.6,0,0,0-1.9.7L80.464-.624a4.33,4.33,0,0,0,1.28.208,2.733,2.733,0,0,0,1.968-.768A2.47,2.47,0,0,0,84.48-3.12ZM94.7-.336l-6.128,1.52-.048-.1L91.12-.944,87.808-4.928,93.648-6.5l.032.08-2.4,1.984Z" transform="translate(88 370)"/>
    <path id="Path_6" data-name="Path 6" d="M6.651-2.6H2.481L1.545,0H.191l3.8-9.953H5.141L8.948,0H7.6ZM2.878-3.678H6.262l-1.7-4.655Z" transform="translate(21 64)"/>
    <path id="Path_7" data-name="Path 7" d="M4.806-4.026H2.468V0H1.148V-9.953H4.443a3.9,3.9,0,0,1,2.587.766,2.755,2.755,0,0,1,.906,2.229,2.68,2.68,0,0,1-.5,1.62,3,3,0,0,1-1.4,1.032L8.374-.082V0H6.966ZM2.468-5.1H4.484A2.275,2.275,0,0,0,6.04-5.606a1.714,1.714,0,0,0,.578-1.356,1.8,1.8,0,0,0-.55-1.418,2.33,2.33,0,0,0-1.589-.5H2.468Z" transform="translate(66 64)"/>
    <path id="Path_10" data-name="Path 10" d="M6.651-2.6H2.481L1.545,0H.191l3.8-9.953H5.141L8.948,0H7.6ZM2.878-3.678H6.262l-1.7-4.655Z" transform="translate(31 317)"/>
    <path id="Path_11" data-name="Path 11" d="M4.806-4.026H2.468V0H1.148V-9.953H4.443a3.9,3.9,0,0,1,2.587.766,2.755,2.755,0,0,1,.906,2.229,2.68,2.68,0,0,1-.5,1.62,3,3,0,0,1-1.4,1.032L8.374-.082V0H6.966ZM2.468-5.1H4.484A2.275,2.275,0,0,0,6.04-5.606a1.714,1.714,0,0,0,.578-1.356,1.8,1.8,0,0,0-.55-1.418,2.33,2.33,0,0,0-1.589-.5H2.468Z" transform="translate(71 317)"/>
  </g>
</svg>
