<svg xmlns="http://www.w3.org/2000/svg" xmlns:xlink="http://www.w3.org/1999/xlink" width="360" height="380" viewBox="0 0 360 380">
  <defs>
    <clipPath id="clip-substitute-panel">
      <rect width="360" height="380"/>
    </clipPath>
  </defs>
  <g id="substitute-panel" clip-path="url(#clip-substitute-panel)">
    <rect width="360" height="380" fill="#e6e6e6"/>
    <path id="Path_2" data-name="Path 2" d="M14.652-16.852l-8.47,5.676L12.5-.484l-13.244,4-.066-.2L7.59-2.31,1.232-12.98l13.354-4.026ZM23.5.242H20.5l.352-2.706A5.954,5.954,0,0,1,15.84.462,5.006,5.006,0,0,1,14.3.242l2.992-8.36.33.066a10.577,10.577,0,0,0-.154,1.826q0,2.4,1.1,2.4a1.126,1.126,0,0,0,.418-.088,4,4,0,0,0,1.892-1.936,8.05,8.05,0,0,0,.99-2.662h.264Zm13.266-5.5a4.252,4.252,0,0,1-1.782,3.1A9.952,9.952,0,0,1,30.668-.022,9.15,9.15,0,0,1,28.622.22,6.9,6.9,0,0,1,27.038.044l-.176,1.034H26.6L24.222-12.98h5.016L28.182-6.754a9.893,9.893,0,0,1,4.6-1.188,5.1,5.1,0,0,1,2.871.737A2.243,2.243,0,0,1,36.762-5.258Zm-4.048.968a2.475,2.475,0,0,0-.594-1.639A1.924,1.924,0,0,0,30.6-6.578a4.946,4.946,0,0,0-2.618.968L27.192-.858a5.953,5.953,0,0,0,1.76.286,3.758,3.758,0,0,0,2.706-1.056A3.4,3.4,0,0,0,32.714-4.29ZM46.772-.462l-8.426,2.09L38.28,1.5,41.844-1.3,37.29-6.776l8.03-2.156.044.11-3.3,2.728ZM62.766-9.416l-11.858.572L52.514,0H47.5l1.584-8.756-4.752.22v-1.848l4.994.242.572-3.19h.22l.572,3.256L62.766-9.5Zm-3.432-2.75-1.892.572.484,1.936-1.144-1.628L55.11-10.23,56.3-11.814,54.78-13.09l1.87.638.748-1.826-.044,1.98Zm-.176,3.212L56.782.088H56.54L54.164-8.954Zm16.17-.462L63.47-8.844,65.076,0H60.06l1.584-8.756-4.752.22v-1.848l4.994.242.572-3.19h.22l.572,3.256L75.328-9.5ZM76.12.242H73.128l.352-2.706A5.954,5.954,0,0,1,68.464.462a5.006,5.006,0,0,1-1.54-.22l2.992-8.36.33.066a10.577,10.577,0,0,0-.154,1.826q0,2.4,1.1,2.4a1.126,1.126,0,0,0,.418-.088A4,4,0,0,0,73.5-5.852a8.05,8.05,0,0,0,.99-2.662h.264ZM92.312-9.416l-11.858.572L82.06,0H77.044l1.584-8.756-4.752.22v-1.848l4.994.242.572-3.19h.22l.572,3.256L92.312-9.5Zm2.376,3.74a2.265,2.265,0,0,1-1.034,2.112,8.239,8.239,0,0,1-3.96,1.584,13.9,13.9,0,0,1-1.606.154,1.989,1.989,0,0,0,1.694.726,7.654,7.654,0,0,0,3.894-1.386l.484.594A7.029,7.029,0,0,1,91.784-.66a13.243,13.243,0,0,1-3.432.7,6.153,6.153,0,0,1-3.146-.506,2.567,2.567,0,0,1-1.5-2.332,3.544,3.544,0,0,1,1.672-2.97,8.754,8.754,0,0,1,3.806-1.65,10.325,10.325,0,0,1,1.936-.2,4.916,4.916,0,0,1,2.486.55A1.976,1.976,0,0,1,94.688-5.676Zm-4.422-1.21a2.735,2.735,0,0,0-1.562.55A3.155,3.155,0,0,0,87.12-3.784,1.011,1.011,0,0,0,88.264-2.64a2.764,2.764,0,0,0,1.584-.572,3.962,3.962,0,0,0,1.144-1.2,2.573,2.573,0,0,0,.44-1.331A1.021,1.021,0,0,0,90.266-6.886Z" transform="translate(133 22)"/>
    <path id="Path_3" data-name="Path 3" d="M10.656-12.256,4.5-8.128,9.088-.352-.544,2.56l-.048-.144L5.52-1.68.9-9.44l9.712-2.928Zm8.512,15.6H15.536l.656-3.9a6.851,6.851,0,0,1-3.1.736,3.713,3.713,0,0,1-2.08-.528,1.616,1.616,0,0,1-.8-1.408,3.1,3.1,0,0,1,1.3-2.272A7.238,7.238,0,0,1,14.64-5.584a5.905,5.905,0,0,1,2.432-.1l.192-1.2h.176ZM16.96-5.04a4.811,4.811,0,0,0-1.072-.128,2.8,2.8,0,0,0-1.968.736,2.447,2.447,0,0,0-.768,1.952,1.8,1.8,0,0,0,.432,1.192,1.4,1.4,0,0,0,1.1.472,3.356,3.356,0,0,0,1.648-.544ZM26.32.176H24.144L24.4-1.792A4.33,4.33,0,0,1,20.752.336a3.641,3.641,0,0,1-1.12-.16L21.808-5.9l.24.048a7.693,7.693,0,0,0-.112,1.328q0,1.744.8,1.744a.819.819,0,0,0,.3-.064,2.905,2.905,0,0,0,1.376-1.408,5.855,5.855,0,0,0,.72-1.936h.192Zm4.288-9.024-1.376.416.352,1.408-.832-1.184-1.216.768L28.4-8.592,27.3-9.52l1.36.464.544-1.328-.032,1.44ZM30.48-6.512,28.752.064h-.176L26.848-6.512Zm7.344.48L35.648.048,35.408,0a7.693,7.693,0,0,0,.112-1.328q0-1.744-.8-1.744a.819.819,0,0,0-.3.064A2.905,2.905,0,0,0,33.04-1.6,5.979,5.979,0,0,0,32.3.336h-.176l-.992-6.368H33.3l-.24,1.968A4.33,4.33,0,0,1,36.7-6.192,3.842,3.842,0,0,1,37.824-6.032Zm7.984.5L42.48-3.168,44.592.592,44.448.8,40.736-1.776l-.464,2.784H40.08L38.352-9.216H42L40.9-2.752l1.936-2.784Zm9.6,1.36-6.88,7.76-.144-.1L49.872-.16,46-4.416l3.264-1.616.928,5.1L52.32-6.112ZM68.672-.464H64.544l.144.912L61.12.976l.224-1.44H58.9l-.032-.192,2.624-.784,1.36-9.136h.112l1.3,8.3L68.672-3.6ZM77.92,0H74.4l.3-1.344A7.019,7.019,0,0,1,72.8-.32,5.184,5.184,0,0,1,71.088,0a2.374,2.374,0,0,1-1.432-.392,1.265,1.265,0,0,1-.536-1.08,3.123,3.123,0,0,1,1.08-2.12,6.661,6.661,0,0,1,2.6-1.624,5.322,5.322,0,0,1,1.728-.32,2.712,2.712,0,0,1,1.072.192l.032-.192h.512ZM74.608-2.864a2.457,2.457,0,0,0,.192-.912q0-1.072-.88-1.072a1.933,1.933,0,0,0-1.248.584,3.618,3.618,0,0,0-.976,1.4,2.457,2.457,0,0,0-.192.912q0,1.056.88,1.056a1.929,1.929,0,0,0,1.256-.576A3.588,3.588,0,0,0,74.608-2.864Zm12.816-.96a3.092,3.092,0,0,1-1.3,2.256A7.238,7.238,0,0,1,82.992-.016,6.654,6.654,0,0,1,81.5.16,5.017,5.017,0,0,1,80.352.032l-.128.752h-.192L78.3-9.44h3.648l-.768,4.528a7.2,7.2,0,0,1,3.344-.864,3.71,3.71,0,0,1,2.088.536A1.631,1.631,0,0,1,87.424-3.824Zm-2.944.7a1.8,1.8,0,0,0-.432-1.192,1.4,1.4,0,0,0-1.1-.472,3.6,3.6,0,0,0-1.9.7L80.464-.624a4.33,4.33,0,0,0,1.28.208,2.733,2.733,0,0,0,1.968-.768A2.47,2.47,0,0,0,84.48-3.12ZM94.7-.336l-6.128,1.52-.048-.1L91.12-.944,87.808-4.928,93.648-6.5l.032.08-2.4,1.984Z" transform="translate(54 373)"/>
    <path id="Path_6" data-name="Path 6" d="M7.119-4.709H2.644V0H1.238V-10.664H7.844v1.15h-5.2v3.655H7.119ZM10.789,0H9.434V-7.925h1.355ZM9.324-10.027a.809.809,0,0,1,.2-.557.756.756,0,0,1,.6-.227.768.768,0,0,1,.6.227.8.8,0,0,1,.205.557.774.774,0,0,1-.205.549.782.782,0,0,1-.6.22.77.77,0,0,1-.6-.22A.782.782,0,0,1,9.324-10.027Zm4.915,2.1.044,1a2.888,2.888,0,0,1,2.373-1.143q2.512,0,2.534,2.834V0H17.834V-5.244a1.824,1.824,0,0,0-.392-1.267,1.57,1.57,0,0,0-1.2-.41,1.956,1.956,0,0,0-1.157.352,2.387,2.387,0,0,0-.776.923V0H12.957V-7.925ZM24.521.146A3.463,3.463,0,0,1,21.9-.912a3.928,3.928,0,0,1-1.011-2.831v-.249a4.756,4.756,0,0,1,.45-2.106,3.514,3.514,0,0,1,1.26-1.45,3.167,3.167,0,0,1,1.754-.524,2.968,2.968,0,0,1,2.4,1.018,4.408,4.408,0,0,1,.857,2.915v.564H22.244a2.817,2.817,0,0,0,.685,1.893,2.153,2.153,0,0,0,1.666.721,2.36,2.36,0,0,0,1.216-.293,3.055,3.055,0,0,0,.872-.776l.828.645A3.328,3.328,0,0,1,24.521.146Zm-.168-7.1a1.807,1.807,0,0,0-1.377.6,2.9,2.9,0,0,0-.688,1.674h3.97v-.1a2.581,2.581,0,0,0-.557-1.6A1.7,1.7,0,0,0,24.353-6.958Z" transform="translate(111 49)"/>
    <path id="Path_1" data-name="Path 1" d="M142,63.15" fill="none" stroke="#707070" stroke-width="1"/>
    <path id="Path_7" data-name="Path 7" d="M4.768-1.868l3.047-8.8H9.353L5.4,0H4.153L.205-10.664H1.736Zm5.1-2.168a4.681,4.681,0,0,1,.458-2.095,3.415,3.415,0,0,1,1.274-1.436,3.469,3.469,0,0,1,1.864-.505,3.342,3.342,0,0,1,2.618,1.121,4.311,4.311,0,0,1,1,2.981v.1A4.722,4.722,0,0,1,16.644-1.8,3.365,3.365,0,0,1,15.377-.366a3.509,3.509,0,0,1-1.893.513A3.334,3.334,0,0,1,10.873-.974a4.29,4.29,0,0,1-1-2.966Zm1.362.161a3.39,3.39,0,0,0,.612,2.117,1.957,1.957,0,0,0,1.637.8,1.945,1.945,0,0,0,1.641-.809,3.707,3.707,0,0,0,.608-2.267,3.384,3.384,0,0,0-.619-2.113,1.968,1.968,0,0,0-1.644-.809,1.946,1.946,0,0,0-1.619.8A3.68,3.68,0,0,0,11.235-3.875ZM20.259,0H18.9V-11.25h1.355Z" transform="translate(18 108)"/>
    <path id="Path_8" data-name="Path 8" d="M4.768-1.868l3.047-8.8H9.353L5.4,0H4.153L.205-10.664H1.736Zm5.1-2.168a4.681,4.681,0,0,1,.458-2.095,3.415,3.415,0,0,1,1.274-1.436,3.469,3.469,0,0,1,1.864-.505,3.342,3.342,0,0,1,2.618,1.121,4.311,4.311,0,0,1,1,2.981v.1A4.722,4.722,0,0,1,16.644-1.8,3.365,3.365,0,0,1,15.377-.366a3.509,3.509,0,0,1-1.893.513A3.334,3.334,0,0,1,10.873-.974a4.29,4.29,0,0,1-1-2.966Zm1.362.161a3.39,3.39,0,0,0,.612,2.117,1.957,1.957,0,0,0,1.637.8,1.945,1.945,0,0,0,1.641-.809,3.707,3.707,0,0,0,.608-2.267,3.384,3.384,0,0,0-.619-2.113,1.968,1.968,0,0,0-1.644-.809,1.946,1.946,0,0,0-1.619.8A3.68,3.68,0,0,0,11.235-3.875ZM20.259,0H18.9V-11.25h1.355Z" transform="translate(18 319)"/>
    <path id="Path_9" data-name="Path 9" d="M4.38-4.753A6.612,6.612,0,0,1,1.747-6.031,2.442,2.442,0,0,1,.923-7.9,2.58,2.58,0,0,1,1.93-9.987a4,4,0,0,1,2.618-.824,4.369,4.369,0,0,1,1.959.425A3.222,3.222,0,0,1,7.841-9.214a3,3,0,0,1,.472,1.633H6.9a1.95,1.95,0,0,0-.615-1.525,2.5,2.5,0,0,0-1.736-.555A2.561,2.561,0,0,0,2.926-9.2a1.53,1.53,0,0,0-.582,1.273,1.376,1.376,0,0,0,.553,1.1A5.424,5.424,0,0,0,4.779-6a8.734,8.734,0,0,1,2.08.825A3.157,3.157,0,0,1,7.972-4.124,2.683,2.683,0,0,1,8.335-2.71,2.492,2.492,0,0,1,7.324-.634a4.31,4.31,0,0,1-2.7.78A5.013,5.013,0,0,1,2.571-.275,3.451,3.451,0,0,1,1.1-1.428,2.815,2.815,0,0,1,.586-3.091H2a1.837,1.837,0,0,0,.714,1.527A3.007,3.007,0,0,0,4.622-1a2.764,2.764,0,0,0,1.707-.454A1.475,1.475,0,0,0,6.921-2.7a1.448,1.448,0,0,0-.549-1.212A6.333,6.333,0,0,0,4.38-4.753ZM14.817-.784A2.878,2.878,0,0,1,12.5.146a2.464,2.464,0,0,1-1.93-.736A3.186,3.186,0,0,1,9.9-2.769V-7.925H11.25v5.12q0,1.8,1.465,1.8A2.028,2.028,0,0,0,14.78-2.161V-7.925h1.355V0H14.846ZM24.9-3.875a4.712,4.712,0,0,1-.835,2.919,2.668,2.668,0,0,1-2.241,1.1A2.763,2.763,0,0,1,19.5-.916L19.438,0H18.193V-11.25h1.355v4.2a2.747,2.747,0,0,1,2.263-1.018A2.684,2.684,0,0,1,24.078-6.98,4.853,4.853,0,0,1,24.9-3.992Zm-1.355-.154a3.662,3.662,0,0,0-.535-2.139,1.77,1.77,0,0,0-1.538-.754,1.989,1.989,0,0,0-1.926,1.245v3.428A2.045,2.045,0,0,0,21.489-1a1.76,1.76,0,0,0,1.516-.754A3.894,3.894,0,0,0,23.547-4.028ZM36.423-2.791H31.956L30.952,0H29.5l4.072-10.664H34.8L38.884,0H37.441ZM32.38-3.94h3.625L34.189-8.928Z" transform="translate(57 319)"/>
    <path id="Path_10" data-name="Path 10" d="M4.38-4.753A6.612,6.612,0,0,1,1.747-6.031,2.442,2.442,0,0,1,.923-7.9,2.58,2.58,0,0,1,1.93-9.987a4,4,0,0,1,2.618-.824,4.369,4.369,0,0,1,1.959.425A3.222,3.222,0,0,1,7.841-9.214a3,3,0,0,1,.472,1.633H6.9a1.95,1.95,0,0,0-.615-1.525,2.5,2.5,0,0,0-1.736-.555A2.561,2.561,0,0,0,2.926-9.2a1.53,1.53,0,0,0-.582,1.273,1.376,1.376,0,0,0,.553,1.1A5.424,5.424,0,0,0,4.779-6a8.734,8.734,0,0,1,2.08.825A3.157,3.157,0,0,1,7.972-4.124,2.683,2.683,0,0,1,8.335-2.71,2.492,2.492,0,0,1,7.324-.634a4.31,4.31,0,0,1-2.7.78A5.013,5.013,0,0,1,2.571-.275,3.451,3.451,0,0,1,1.1-1.428,2.815,2.815,0,0,1,.586-3.091H2a1.837,1.837,0,0,0,.714,1.527A3.007,3.007,0,0,0,4.622-1a2.764,2.764,0,0,0,1.707-.454A1.475,1.475,0,0,0,6.921-2.7a1.448,1.448,0,0,0-.549-1.212A6.333,6.333,0,0,0,4.38-4.753ZM14.817-.784A2.878,2.878,0,0,1,12.5.146a2.464,2.464,0,0,1-1.93-.736A3.186,3.186,0,0,1,9.9-2.769V-7.925H11.25v5.12q0,1.8,1.465,1.8A2.028,2.028,0,0,0,14.78-2.161V-7.925h1.355V0H14.846ZM24.9-3.875a4.712,4.712,0,0,1-.835,2.919,2.668,2.668,0,0,1-2.241,1.1A2.763,2.763,0,0,1,19.5-.916L19.438,0H18.193V-11.25h1.355v4.2a2.747,2.747,0,0,1,2.263-1.018A2.684,2.684,0,0,1,24.078-6.98,4.853,4.853,0,0,1,24.9-3.992Zm-1.355-.154a3.662,3.662,0,0,0-.535-2.139,1.77,1.77,0,0,0-1.538-.754,1.989,1.989,0,0,0-1.926,1.245v3.428A2.045,2.045,0,0,0,21.489-1a1.76,1.76,0,0,0,1.516-.754A3.894,3.894,0,0,0,23.547-4.028ZM30.535,0V-10.664h3.486a4.047,4.047,0,0,1,2.611.718,2.587,2.587,0,0,1,.875,2.124A2.166,2.166,0,0,1,37.083-6.5a2.754,2.754,0,0,1-1.157.89,2.473,2.473,0,0,1,1.366.919,2.638,2.638,0,0,1,.5,1.615,2.852,2.852,0,0,1-.93,2.256A3.847,3.847,0,0,1,34.233,0Zm1.406-4.988V-1.15h2.322a2.236,2.236,0,0,0,1.549-.509,1.788,1.788,0,0,0,.568-1.4q0-1.926-2.095-1.926Zm0-1.128h2.124a2.226,2.226,0,0,0,1.476-.462,1.55,1.55,0,0,0,.553-1.255,1.524,1.524,0,0,0-.513-1.281,2.518,2.518,0,0,0-1.56-.4h-2.08Z" transform="translate(105 319)"/>
    <path id="Path_11" data-name="Path 11" d="M0,0V13" transform="translate(28.5 211.5)" fill="none" stroke="#707070" stroke-linecap="round" stroke-width="2"/>
    <path id="Path_12" data-name="Path 12" d="M0,0V10" transform="translate(28.5 256.5)" fill="none" stroke="#707070" stroke-linecap="round" stroke-width="2"/>
    <path id="Path_13" data-name="Path 13" d="M2.644-4.175V0H1.238V-10.664H5.171a3.952,3.952,0,0,1,2.743.894A3.029,3.029,0,0,1,8.906-7.4a2.989,2.989,0,0,1-.97,2.391,4.128,4.128,0,0,1-2.78.839Zm0-1.15H5.171A2.526,2.526,0,0,0,6.9-5.857a1.945,1.945,0,0,0,.6-1.537A2.009,2.009,0,0,0,6.9-8.92a2.367,2.367,0,0,0-1.648-.594H2.644ZM13-3.362l.205,1.406.3-1.267,2.109-7.441H16.8L18.86-3.223l.293,1.289.227-1.436,1.655-7.295h1.414L19.863,0H18.582l-2.2-7.771-.168-.813-.168.813L13.77,0H12.488L9.91-10.664h1.406Z" transform="translate(17 172)"/>
    <path id="Path_14" data-name="Path 14" d="M1.238,0V-10.664h3.01a4.846,4.846,0,0,1,2.461.615A4.161,4.161,0,0,1,8.361-8.3a5.7,5.7,0,0,1,.59,2.607v.681a5.718,5.718,0,0,1-.582,2.644A4.1,4.1,0,0,1,6.705-.623,5.155,5.155,0,0,1,4.189,0ZM2.644-9.514V-1.15H4.124A3.219,3.219,0,0,0,6.654-2.162a4.18,4.18,0,0,0,.9-2.881v-.623a4.246,4.246,0,0,0-.853-2.826A3.036,3.036,0,0,0,4.285-9.514ZM12.334,0H10.979V-7.925h1.355ZM10.869-10.027a.809.809,0,0,1,.2-.557.756.756,0,0,1,.6-.227.768.768,0,0,1,.6.227.8.8,0,0,1,.205.557.774.774,0,0,1-.205.549.782.782,0,0,1-.6.22.77.77,0,0,1-.6-.22A.782.782,0,0,1,10.869-10.027Zm6.248,8.188L19.08-7.925h1.384L17.622,0H16.589L13.718-7.925H15.1Zm14.465-.952H27.114L26.111,0h-1.45l4.072-10.664h1.23L34.043,0H32.6ZM27.539-3.94h3.625L29.348-8.928Z" transform="translate(60 172)"/>
    <path id="Path_15" data-name="Path 15" d="M1.238,0V-10.664h3.01a4.846,4.846,0,0,1,2.461.615A4.161,4.161,0,0,1,8.361-8.3a5.7,5.7,0,0,1,.59,2.607v.681a5.718,5.718,0,0,1-.582,2.644A4.1,4.1,0,0,1,6.705-.623,5.155,5.155,0,0,1,4.189,0ZM2.644-9.514V-1.15H4.124A3.219,3.219,0,0,0,6.654-2.162a4.18,4.18,0,0,0,.9-2.881v-.623a4.246,4.246,0,0,0-.853-2.826A3.036,3.036,0,0,0,4.285-9.514ZM12.334,0H10.979V-7.925h1.355ZM10.869-10.027a.809.809,0,0,1,.2-.557.756.756,0,0,1,.6-.227.768.768,0,0,1,.6.227.8.8,0,0,1,.205.557.774.774,0,0,1-.205.549.782.782,0,0,1-.6.22.77.77,0,0,1-.6-.22A.782.782,0,0,1,10.869-10.027Zm6.248,8.188L19.08-7.925h1.384L17.622,0H16.589L13.718-7.925H15.1ZM25.693,0V-10.664H29.18a4.047,4.047,0,0,1,2.611.718,2.587,2.587,0,0,1,.875,2.124A2.166,2.166,0,0,1,32.241-6.5a2.754,2.754,0,0,1-1.157.89,2.473,2.473,0,0,1,1.366.919,2.638,2.638,0,0,1,.5,1.615,2.852,2.852,0,0,1-.93,2.256A3.847,3.847,0,0,1,29.392,0ZM27.1-4.988V-1.15h2.322a2.236,2.236,0,0,0,1.549-.509,1.788,1.788,0,0,0,.568-1.4q0-1.926-2.095-1.926Zm0-1.128h2.124A2.226,2.226,0,0,0,30.7-6.578a1.55,1.55,0,0,0,.553-1.255,1.524,1.524,0,0,0-.513-1.281,2.518,2.518,0,0,0-1.56-.4H27.1Z" transform="translate(108 172)"/>
    <path id="Path_16" data-name="Path 16" d="M4.38-4.753A6.612,6.612,0,0,1,1.747-6.031,2.442,2.442,0,0,1,.923-7.9,2.58,2.58,0,0,1,1.93-9.987a4,4,0,0,1,2.618-.824,4.369,4.369,0,0,1,1.959.425A3.222,3.222,0,0,1,7.841-9.214a3,3,0,0,1,.472,1.633H6.9a1.95,1.95,0,0,0-.615-1.525,2.5,2.5,0,0,0-1.736-.555A2.561,2.561,0,0,0,2.926-9.2a1.53,1.53,0,0,0-.582,1.273,1.376,1.376,0,0,0,.553,1.1A5.424,5.424,0,0,0,4.779-6a8.734,8.734,0,0,1,2.08.825A3.157,3.157,0,0,1,7.972-4.124,2.683,2.683,0,0,1,8.335-2.71,2.492,2.492,0,0,1,7.324-.634a4.31,4.31,0,0,1-2.7.78A5.013,5.013,0,0,1,2.571-.275,3.451,3.451,0,0,1,1.1-1.428,2.815,2.815,0,0,1,.586-3.091H2a1.837,1.837,0,0,0,.714,1.527A3.007,3.007,0,0,0,4.622-1a2.764,2.764,0,0,0,1.707-.454A1.475,1.475,0,0,0,6.921-2.7a1.448,1.448,0,0,0-.549-1.212A6.333,6.333,0,0,0,4.38-4.753ZM14.817-.784A2.878,2.878,0,0,1,12.5.146a2.464,2.464,0,0,1-1.93-.736A3.186,3.186,0,0,1,9.9-2.769V-7.925H11.25v5.12q0,1.8,1.465,1.8A2.028,2.028,0,0,0,14.78-2.161V-7.925h1.355V0H14.846ZM24.9-3.875a4.712,4.712,0,0,1-.835,2.919,2.668,2.668,0,0,1-2.241,1.1A2.763,2.763,0,0,1,19.5-.916L19.438,0H18.193V-11.25h1.355v4.2a2.747,2.747,0,0,1,2.263-1.018A2.684,2.684,0,0,1,24.078-6.98,4.853,4.853,0,0,1,24.9-3.992Zm-1.355-.154a3.662,3.662,0,0,0-.535-2.139,1.77,1.77,0,0,0-1.538-.754,1.989,1.989,0,0,0-1.926,1.245v3.428A2.045,2.045,0,0,0,21.489-1a1.76,1.76,0,0,0,1.516-.754A3.894,3.894,0,0,0,23.547-4.028ZM36.423-2.791H31.956L30.952,0H29.5l4.072-10.664H34.8L38.884,0H37.441ZM32.38-3.94h3.625L34.189-8.928Z" transform="translate(57 108)"/>
    <path id="Path_17" data-name="Path 17" d="M4.38-4.753A6.612,6.612,0,0,1,1.747-6.031,2.442,2.442,0,0,1,.923-7.9,2.58,2.58,0,0,1,1.93-9.987a4,4,0,0,1,2.618-.824,4.369,4.369,0,0,1,1.959.425A3.222,3.222,0,0,1,7.841-9.214a3,3,0,0,1,.472,1.633H6.9a1.95,1.95,0,0,0-.615-1.525,2.5,2.5,0,0,0-1.736-.555A2.561,2.561,0,0,0,2.926-9.2a1.53,1.53,0,0,0-.582,1.273,1.376,1.376,0,0,0,.553,1.1A5.424,5.424,0,0,0,4.779-6a8.734,8.734,0,0,1,2.08.825A3.157,3.157,0,0,1,7.972-4.124,2.683,2.683,0,0,1,8.335-2.71,2.492,2.492,0,0,1,7.324-.634a4.31,4.31,0,0,1-2.7.78A5.013,5.013,0,0,1,2.571-.275,3.451,3.451,0,0,1,1.1-1.428,2.815,2.815,0,0,1,.586-3.091H2a1.837,1.837,0,0,0,.714,1.527A3.007,3.007,0,0,0,4.622-1a2.764,2.764,0,0,0,1.707-.454A1.475,1.475,0,0,0,6.921-2.7a1.448,1.448,0,0,0-.549-1.212A6.333,6.333,0,0,0,4.38-4.753ZM14.817-.784A2.878,2.878,0,0,1,12.5.146a2.464,2.464,0,0,1-1.93-.736A3.186,3.186,0,0,1,9.9-2.769V-7.925H11.25v5.12q0,1.8,1.465,1.8A2.028,2.028,0,0,0,14.78-2.161V-7.925h1.355V0H14.846ZM24.9-3.875a4.712,4.712,0,0,1-.835,2.919,2.668,2.668,0,0,1-2.241,1.1A2.763,2.763,0,0,1,19.5-.916L19.438,0H18.193V-11.25h1.355v4.2a2.747,2.747,0,0,1,2.263-1.018A2.684,2.684,0,0,1,24.078-6.98,4.853,4.853,0,0,1,24.9-3.992Zm-1.355-.154a3.662,3.662,0,0,0-.535-2.139,1.77,1.77,0,0,0-1.538-.754,1.989,1.989,0,0,0-1.926,1.245v3.428A2.045,2.045,0,0,0,21.489-1a1.76,1.76,0,0,0,1.516-.754A3.894,3.894,0,0,0,23.547-4.028ZM30.535,0V-10.664h3.486a4.047,4.047,0,0,1,2.611.718,2.587,2.587,0,0,1,.875,2.124A2.166,2.166,0,0,1,37.083-6.5a2.754,2.754,0,0,1-1.157.89,2.473,2.473,0,0,1,1.366.919,2.638,2.638,0,0,1,.5,1.615,2.852,2.852,0,0,1-.93,2.256A3.847,3.847,0,0,1,34.233,0Zm1.406-4.988V-1.15h2.322a2.236,2.236,0,0,0,1.549-.509,1.788,1.788,0,0,0,.568-1.4q0-1.926-2.095-1.926Zm0-1.128h2.124a2.226,2.226,0,0,0,1.476-.462,1.55,1.55,0,0,0,.553-1.255,1.524,1.524,0,0,0-.513-1.281,2.518,2.518,0,0,0-1.56-.4h-2.08Z" transform="translate(105 108)"/>
    <path id="Path_18" data-name="Path 18" d="M1.238,0V-10.664h3.01a4.846,4.846,0,0,1,2.461.615A4.161,4.161,0,0,1,8.361-8.3a5.7,5.7,0,0,1,.59,2.607v.681a5.718,5.718,0,0,1-.582,2.644A4.1,4.1,0,0,1,6.705-.623,5.155,5.155,0,0,1,4.189,0ZM2.644-9.514V-1.15H4.124A3.219,3.219,0,0,0,6.654-2.162a4.18,4.18,0,0,0,.9-2.881v-.623a4.246,4.246,0,0,0-.853-2.826A3.036,3.036,0,0,0,4.285-9.514ZM12.334,0H10.979V-7.925h1.355ZM10.869-10.027a.809.809,0,0,1,.2-.557.756.756,0,0,1,.6-.227.768.768,0,0,1,.6.227.8.8,0,0,1,.205.557.774.774,0,0,1-.205.549.782.782,0,0,1-.6.22.77.77,0,0,1-.6-.22A.782.782,0,0,1,10.869-10.027Zm6.248,8.188L19.08-7.925h1.384L17.622,0H16.589L13.718-7.925H15.1ZM25.693,0V-10.664H29.18a4.047,4.047,0,0,1,2.611.718,2.587,2.587,0,0,1,.875,2.124A2.166,2.166,0,0,1,32.241-6.5a2.754,2.754,0,0,1-1.157.89,2.473,2.473,0,0,1,1.366.919,2.638,2.638,0,0,1,.5,1.615,2.852,2.852,0,0,1-.93,2.256A3.847,3.847,0,0,1,29.392,0ZM27.1-4.988V-1.15h2.322a2.236,2.236,0,0,0,1.549-.509,1.788,1.788,0,0,0,.568-1.4q0-1.926-2.095-1.926Zm0-1.128h2.124A2.226,2.226,0,0,0,30.7-6.578a1.55,1.55,0,0,0,.553-1.255,1.524,1.524,0,0,0-.513-1.281,2.518,2.518,0,0,0-1.56-.4H27.1Z" transform="translate(216 172)"/>
    <path id="Path_19" data-name="Path 19" d="M1.238,0V-10.664h3.01a4.846,4.846,0,0,1,2.461.615A4.161,4.161,0,0,1,8.361-8.3a5.7,5.7,0,0,1,.59,2.607v.681a5.718,5.718,0,0,1-.582,2.644A4.1,4.1,0,0,1,6.705-.623,5.155,5.155,0,0,1,4.189,0ZM2.644-9.514V-1.15H4.124A3.219,3.219,0,0,0,6.654-2.162a4.18,4.18,0,0,0,.9-2.881v-.623a4.246,4.246,0,0,0-.853-2.826A3.036,3.036,0,0,0,4.285-9.514ZM12.334,0H10.979V-7.925h1.355ZM10.869-10.027a.809.809,0,0,1,.2-.557.756.756,0,0,1,.6-.227.768.768,0,0,1,.6.227.8.8,0,0,1,.205.557.774.774,0,0,1-.205.549.782.782,0,0,1-.6.22.77.77,0,0,1-.6-.22A.782.782,0,0,1,10.869-10.027Zm6.248,8.188L19.08-7.925h1.384L17.622,0H16.589L13.718-7.925H15.1Zm14.465-.952H27.114L26.111,0h-1.45l4.072-10.664h1.23L34.043,0H32.6ZM27.539-3.94h3.625L29.348-8.928Z" transform="translate(264 172)"/>
    <path id="Path_20" data-name="Path 20" d="M2.644-4.175V0H1.238V-10.664H5.171a3.952,3.952,0,0,1,2.743.894A3.029,3.029,0,0,1,8.906-7.4a2.989,2.989,0,0,1-.97,2.391,4.128,4.128,0,0,1-2.78.839Zm0-1.15H5.171A2.526,2.526,0,0,0,6.9-5.857a1.945,1.945,0,0,0,.6-1.537A2.009,2.009,0,0,0,6.9-8.92a2.367,2.367,0,0,0-1.648-.594H2.644ZM13-3.362l.205,1.406.3-1.267,2.109-7.441H16.8L18.86-3.223l.293,1.289.227-1.436,1.655-7.295h1.414L19.863,0H18.582l-2.2-7.771-.168-.813-.168.813L13.77,0H12.488L9.91-10.664h1.406Z" transform="translate(318 172)"/>
    <path id="Path_21" data-name="Path 21" d="M0,0V13" transform="translate(76.5 211.5)" fill="none" stroke="#707070" stroke-linecap="round" stroke-width="2"/>
    <path id="Path_22" data-name="Path 22" d="M0,0V10" transform="translate(76.5 256.5)" fill="none" stroke="#707070" stroke-linecap="round" stroke-width="2"/>
    <path id="Path_23" data-name="Path 23" d="M0,0V13" transform="translate(124.5 211.5)" fill="none" stroke="#707070" stroke-linecap="round" stroke-width="2"/>
    <path id="Path_24" data-name="Path 24" d="M0,0V10" transform="translate(124.5 256.5)" fill="none" stroke="#707070" stroke-linecap="round" stroke-width="2"/>
    <path id="Path_25" data-name="Path 25" d="M0,0V13" transform="translate(329.5 211.5)" fill="none" stroke="#707070" stroke-linecap="round" stroke-width="2"/>
    <path id="Path_26" data-name="Path 26" d="M0,0V10" transform="translate(329.5 256.5)" fill="none" stroke="#707070" stroke-linecap="round" stroke-width="2"/>
    <path id="Path_27" data-name="Path 27" d="M0,0V13" transform="translate(280.5 211.5)" fill="none" stroke="#707070" stroke-linecap="round" stroke-width="2"/>
    <path id="Path_28" data-name="Path 28" d="M0,0V10" transform="translate(280.5 256.5)" fill="none" stroke="#707070" stroke-linecap="round" stroke-width="2"/>
    <path id="Path_29" data-name="Path 29" d="M0,0V13" transform="translate(232.5 211.5)" fill="none" stroke="#707070" stroke-linecap="round" stroke-width="2"/>
    <path id="Path_30" data-name="Path 30" d="M0,0V10" transform="translate(232.5 256.5)" fill="none" stroke="#707070" stroke-linecap="round" stroke-width="2"/>
    <path id="Path_33" data-name="Path 33" d="M7.119-4.709H2.644V0H1.238V-10.664H7.844v1.15h-5.2v3.655H7.119ZM10.789,0H9.434V-7.925h1.355ZM9.324-10.027a.809.809,0,0,1,.2-.557.756.756,0,0,1,.6-.227.768.768,0,0,1,.6.227.8.8,0,0,1,.205.557.774.774,0,0,1-.205.549.782.782,0,0,1-.6.22.77.77,0,0,1-.6-.22A.782.782,0,0,1,9.324-10.027Zm4.915,2.1.044,1a2.888,2.888,0,0,1,2.373-1.143q2.512,0,2.534,2.834V0H17.834V-5.244a1.824,1.824,0,0,0-.392-1.267,1.57,1.57,0,0,0-1.2-.41,1.956,1.956,0,0,0-1.157.352,2.387,2.387,0,0,0-.776.923V0H12.957V-7.925ZM24.521.146A3.463,3.463,0,0,1,21.9-.912a3.928,3.928,0,0,1-1.011-2.831v-.249a4.756,4.756,0,0,1,.45-2.106,3.514,3.514,0,0,1,1.26-1.45,3.167,3.167,0,0,1,1.754-.524,2.968,2.968,0,0,1,2.4,1.018,4.408,4.408,0,0,1,.857,2.915v.564H22.244a2.817,2.817,0,0,0,.685,1.893,2.153,2.153,0,0,0,1.666.721,2.36,2.36,0,0,0,1.216-.293,3.055,3.055,0,0,0,.872-.776l.828.645A3.328,3.328,0,0,1,24.521.146Zm-.168-7.1a1.807,1.807,0,0,0-1.377.6,2.9,2.9,0,0,0-.688,1.674h3.97v-.1a2.581,2.581,0,0,0-.557-1.6A1.7,1.7,0,0,0,24.353-6.958Z" transform="translate(219 49)"/>
    <path id="Path_34" data-name="Path 34" d="M4.768-1.868l3.047-8.8H9.353L5.4,0H4.153L.205-10.664H1.736Zm5.1-2.168a4.681,4.681,0,0,1,.458-2.095,3.415,3.415,0,0,1,1.274-1.436,3.469,3.469,0,0,1,1.864-.505,3.342,3.342,0,0,1,2.618,1.121,4.311,4.311,0,0,1,1,2.981v.1A4.722,4.722,0,0,1,16.644-1.8,3.365,3.365,0,0,1,15.377-.366a3.509,3.509,0,0,1-1.893.513A3.334,3.334,0,0,1,10.873-.974a4.29,4.29,0,0,1-1-2.966Zm1.362.161a3.39,3.39,0,0,0,.612,2.117,1.957,1.957,0,0,0,1.637.8,1.945,1.945,0,0,0,1.641-.809,3.707,3.707,0,0,0,.608-2.267,3.384,3.384,0,0,0-.619-2.113,1.968,1.968,0,0,0-1.644-.809,1.946,1.946,0,0,0-1.619.8A3.68,3.68,0,0,0,11.235-3.875ZM20.259,0H18.9V-11.25h1.355Z" transform="translate(318 108)"/>
    <path id="Path_35" data-name="Path 35" d="M4.38-4.753A6.612,6.612,0,0,1,1.747-6.031,2.442,2.442,0,0,1,.923-7.9,2.58,2.58,0,0,1,1.93-9.987a4,4,0,0,1,2.618-.824,4.369,4.369,0,0,1,1.959.425A3.222,3.222,0,0,1,7.841-9.214a3,3,0,0,1,.472,1.633H6.9a1.95,1.95,0,0,0-.615-1.525,2.5,2.5,0,0,0-1.736-.555A2.561,2.561,0,0,0,2.926-9.2a1.53,1.53,0,0,0-.582,1.273,1.376,1.376,0,0,0,.553,1.1A5.424,5.424,0,0,0,4.779-6a8.734,8.734,0,0,1,2.08.825A3.157,3.157,0,0,1,7.972-4.124,2.683,2.683,0,0,1,8.335-2.71,2.492,2.492,0,0,1,7.324-.634a4.31,4.31,0,0,1-2.7.78A5.013,5.013,0,0,1,2.571-.275,3.451,3.451,0,0,1,1.1-1.428,2.815,2.815,0,0,1,.586-3.091H2a1.837,1.837,0,0,0,.714,1.527A3.007,3.007,0,0,0,4.622-1a2.764,2.764,0,0,0,1.707-.454A1.475,1.475,0,0,0,6.921-2.7a1.448,1.448,0,0,0-.549-1.212A6.333,6.333,0,0,0,4.38-4.753ZM14.817-.784A2.878,2.878,0,0,1,12.5.146a2.464,2.464,0,0,1-1.93-.736A3.186,3.186,0,0,1,9.9-2.769V-7.925H11.25v5.12q0,1.8,1.465,1.8A2.028,2.028,0,0,0,14.78-2.161V-7.925h1.355V0H14.846ZM24.9-3.875a4.712,4.712,0,0,1-.835,2.919,2.668,2.668,0,0,1-2.241,1.1A2.763,2.763,0,0,1,19.5-.916L19.438,0H18.193V-11.25h1.355v4.2a2.747,2.747,0,0,1,2.263-1.018A2.684,2.684,0,0,1,24.078-6.98,4.853,4.853,0,0,1,24.9-3.992Zm-1.355-.154a3.662,3.662,0,0,0-.535-2.139,1.77,1.77,0,0,0-1.538-.754,1.989,1.989,0,0,0-1.926,1.245v3.428A2.045,2.045,0,0,0,21.489-1a1.76,1.76,0,0,0,1.516-.754A3.894,3.894,0,0,0,23.547-4.028ZM36.423-2.791H31.956L30.952,0H29.5l4.072-10.664H34.8L38.884,0H37.441ZM32.38-3.94h3.625L34.189-8.928Z" transform="translate(262 108)"/>
    <path id="Path_36" data-name="Path 36" d="M4.38-4.753A6.612,6.612,0,0,1,1.747-6.031,2.442,2.442,0,0,1,.923-7.9,2.58,2.58,0,0,1,1.93-9.987a4,4,0,0,1,2.618-.824,4.369,4.369,0,0,1,1.959.425A3.222,3.222,0,0,1,7.841-9.214a3,3,0,0,1,.472,1.633H6.9a1.95,1.95,0,0,0-.615-1.525,2.5,2.5,0,0,0-1.736-.555A2.561,2.561,0,0,0,2.926-9.2a1.53,1.53,0,0,0-.582,1.273,1.376,1.376,0,0,0,.553,1.1A5.424,5.424,0,0,0,4.779-6a8.734,8.734,0,0,1,2.08.825A3.157,3.157,0,0,1,7.972-4.124,2.683,2.683,0,0,1,8.335-2.71,2.492,2.492,0,0,1,7.324-.634a4.31,4.31,0,0,1-2.7.78A5.013,5.013,0,0,1,2.571-.275,3.451,3.451,0,0,1,1.1-1.428,2.815,2.815,0,0,1,.586-3.091H2a1.837,1.837,0,0,0,.714,1.527A3.007,3.007,0,0,0,4.622-1a2.764,2.764,0,0,0,1.707-.454A1.475,1.475,0,0,0,6.921-2.7a1.448,1.448,0,0,0-.549-1.212A6.333,6.333,0,0,0,4.38-4.753ZM14.817-.784A2.878,2.878,0,0,1,12.5.146a2.464,2.464,0,0,1-1.93-.736A3.186,3.186,0,0,1,9.9-2.769V-7.925H11.25v5.12q0,1.8,1.465,1.8A2.028,2.028,0,0,0,14.78-2.161V-7.925h1.355V0H14.846ZM24.9-3.875a4.712,4.712,0,0,1-.835,2.919,2.668,2.668,0,0,1-2.241,1.1A2.763,2.763,0,0,1,19.5-.916L19.438,0H18.193V-11.25h1.355v4.2a2.747,2.747,0,0,1,2.263-1.018A2.684,2.684,0,0,1,24.078-6.98,4.853,4.853,0,0,1,24.9-3.992Zm-1.355-.154a3.662,3.662,0,0,0-.535-2.139,1.77,1.77,0,0,0-1.538-.754,1.989,1.989,0,0,0-1.926,1.245v3.428A2.045,2.045,0,0,0,21.489-1a1.76,1.76,0,0,0,1.516-.754A3.894,3.894,0,0,0,23.547-4.028ZM30.535,0V-10.664h3.486a4.047,4.047,0,0,1,2.611.718,2.587,2.587,0,0,1,.875,2.124A2.166,2.166,0,0,1,37.083-6.5a2.754,2.754,0,0,1-1.157.89,2.473,2.473,0,0,1,1.366.919,2.638,2.638,0,0,1,.5,1.615,2.852,2.852,0,0,1-.93,2.256A3.847,3.847,0,0,1,34.233,0Zm1.406-4.988V-1.15h2.322a2.236,2.236,0,0,0,1.549-.509,1.788,1.788,0,0,0,.568-1.4q0-1.926-2.095-1.926Zm0-1.128h2.124a2.226,2.226,0,0,0,1.476-.462,1.55,1.55,0,0,0,.553-1.255,1.524,1.524,0,0,0-.513-1.281,2.518,2.518,0,0,0-1.56-.4h-2.08Z" transform="translate(214 108)"/>
    <path id="Path_37" data-name="Path 37" d="M4.768-1.868l3.047-8.8H9.353L5.4,0H4.153L.205-10.664H1.736ZM10.84.916H9.675l4.453-11.58h1.157Zm14.326-5.9a6.6,6.6,0,0,1-.527,2.736A3.994,3.994,0,0,1,23.145-.469a4.111,4.111,0,0,1-2.256.615,4.076,4.076,0,0,1-2.234-.619,4.09,4.09,0,0,1-1.512-1.765,6.33,6.33,0,0,1-.553-2.655v-.769a6.518,6.518,0,0,1,.535-2.717,4.075,4.075,0,0,1,1.512-1.805,4.058,4.058,0,0,1,2.238-.626,4.134,4.134,0,0,1,2.26.619A3.987,3.987,0,0,1,24.639-8.4a6.629,6.629,0,0,1,.527,2.736Zm-1.4-.688a4.781,4.781,0,0,0-.762-2.911A2.512,2.512,0,0,0,20.874-9.6a2.485,2.485,0,0,0-2.1,1.014,4.683,4.683,0,0,0-.787,2.816v.784A4.788,4.788,0,0,0,18.761-2.1a2.5,2.5,0,0,0,2.128,1.051A2.486,2.486,0,0,0,23-2.04a4.761,4.761,0,0,0,.769-2.845ZM30.242-.959A1.952,1.952,0,0,0,31.509-1.4a1.546,1.546,0,0,0,.6-1.1h1.282a2.457,2.457,0,0,1-.469,1.3,3.087,3.087,0,0,1-1.154.981,3.329,3.329,0,0,1-1.527.366,3.265,3.265,0,0,1-2.574-1.08,4.3,4.3,0,0,1-.956-2.955v-.227a4.771,4.771,0,0,1,.425-2.058,3.236,3.236,0,0,1,1.219-1.4,3.464,3.464,0,0,1,1.879-.5,3.178,3.178,0,0,1,2.216.8A2.853,2.853,0,0,1,33.391-5.2H32.109a1.867,1.867,0,0,0-.582-1.263,1.811,1.811,0,0,0-1.293-.494,1.9,1.9,0,0,0-1.6.743,3.491,3.491,0,0,0-.568,2.15v.256A3.422,3.422,0,0,0,28.63-1.7,1.906,1.906,0,0,0,30.242-.959Zm6.511-8.884v1.919h1.479v1.047H36.753v4.921a1.1,1.1,0,0,0,.2.715A.832.832,0,0,0,37.625-1a3.281,3.281,0,0,0,.645-.088V0a3.951,3.951,0,0,1-1.04.146A1.687,1.687,0,0,1,35.859-.4a2.36,2.36,0,0,1-.461-1.56V-6.877H33.955V-7.925H35.4V-9.844Z" transform="translate(162 253)"/>
    <g id="output_jack" data-name="output jack" transform="translate(165 311)">
      <rect id="Rectangle_9" data-name="Rectangle 9" width="33" height="50" rx="3"/>
      <path id="Path_42" data-name="Path 42" d="M8.812-4.655A6.157,6.157,0,0,1,8.319-2.1,3.728,3.728,0,0,1,6.925-.437,3.837,3.837,0,0,1,4.819.137,3.8,3.8,0,0,1,2.734-.441,3.817,3.817,0,0,1,1.323-2.088,5.908,5.908,0,0,1,.807-4.566v-.718a6.084,6.084,0,0,1,.5-2.536A3.8,3.8,0,0,1,2.717-9.505a3.788,3.788,0,0,1,2.088-.584,3.858,3.858,0,0,1,2.109.578,3.721,3.721,0,0,1,1.4,1.675,6.187,6.187,0,0,1,.492,2.553ZM7.506-5.3a4.463,4.463,0,0,0-.711-2.717,2.345,2.345,0,0,0-1.989-.947,2.32,2.32,0,0,0-1.958.947,4.371,4.371,0,0,0-.735,2.628v.731a4.469,4.469,0,0,0,.721,2.7,2.329,2.329,0,0,0,1.986.981A2.32,2.32,0,0,0,6.788-1.9,4.444,4.444,0,0,0,7.506-4.56ZM15.148-.731a2.686,2.686,0,0,1-2.167.868,2.3,2.3,0,0,1-1.8-.687,2.974,2.974,0,0,1-.625-2.034V-7.4h1.265v4.778q0,1.682,1.367,1.682a1.893,1.893,0,0,0,1.928-1.08V-7.4h1.265V0h-1.2Zm4.867-8.456V-7.4H21.4v.978H20.016v4.593a1.027,1.027,0,0,0,.185.667.777.777,0,0,0,.629.222,3.062,3.062,0,0,0,.6-.082V0a3.688,3.688,0,0,1-.971.136,1.575,1.575,0,0,1-1.278-.513,2.2,2.2,0,0,1-.431-1.456V-6.419H17.4V-7.4h1.347V-9.187Z" transform="translate(4 13)" fill="#fff"/>
    </g>
    <path id="Path_38" data-name="Path 38" d="M10.656-12.256,4.5-8.128,9.088-.352-.544,2.56l-.048-.144L5.52-1.68.9-9.44l9.712-2.928Zm8.512,15.6H15.536l.656-3.9a6.851,6.851,0,0,1-3.1.736,3.713,3.713,0,0,1-2.08-.528,1.616,1.616,0,0,1-.8-1.408,3.1,3.1,0,0,1,1.3-2.272A7.238,7.238,0,0,1,14.64-5.584a5.905,5.905,0,0,1,2.432-.1l.192-1.2h.176ZM16.96-5.04a4.811,4.811,0,0,0-1.072-.128,2.8,2.8,0,0,0-1.968.736,2.447,2.447,0,0,0-.768,1.952,1.8,1.8,0,0,0,.432,1.192,1.4,1.4,0,0,0,1.1.472,3.356,3.356,0,0,0,1.648-.544ZM26.32.176H24.144L24.4-1.792A4.33,4.33,0,0,1,20.752.336a3.641,3.641,0,0,1-1.12-.16L21.808-5.9l.24.048a7.693,7.693,0,0,0-.112,1.328q0,1.744.8,1.744a.819.819,0,0,0,.3-.064,2.905,2.905,0,0,0,1.376-1.408,5.855,5.855,0,0,0,.72-1.936h.192Zm4.288-9.024-1.376.416.352,1.408-.832-1.184-1.216.768L28.4-8.592,27.3-9.52l1.36.464.544-1.328-.032,1.44ZM30.48-6.512,28.752.064h-.176L26.848-6.512Zm7.344.48L35.648.048,35.408,0a7.693,7.693,0,0,0,.112-1.328q0-1.744-.8-1.744a.819.819,0,0,0-.3.064A2.905,2.905,0,0,0,33.04-1.6,5.979,5.979,0,0,0,32.3.336h-.176l-.992-6.368H33.3l-.24,1.968A4.33,4.33,0,0,1,36.7-6.192,3.842,3.842,0,0,1,37.824-6.032Zm7.984.5L42.48-3.168,44.592.592,44.448.8,40.736-1.776l-.464,2.784H40.08L38.352-9.216H42L40.9-2.752l1.936-2.784Zm9.6,1.36-6.88,7.76-.144-.1L49.872-.16,46-4.416l3.264-1.616.928,5.1L52.32-6.112ZM68.672-.464H64.544l.144.912L61.12.976l.224-1.44H58.9l-.032-.192,2.624-.784,1.36-9.136h.112l1.3,8.3L68.672-3.6ZM77.92,0H74.4l.3-1.344A7.019,7.019,0,0,1,72.8-.32,5.184,5.184,0,0,1,71.088,0a2.374,2.374,0,0,1-1.432-.392,1.265,1.265,0,0,1-.536-1.08,3.123,3.123,0,0,1,1.08-2.12,6.661,6.661,0,0,1,2.6-1.624,5.322,5.322,0,0,1,1.728-.32,2.712,2.712,0,0,1,1.072.192l.032-.192h.512ZM74.608-2.864a2.457,2.457,0,0,0,.192-.912q0-1.072-.88-1.072a1.933,1.933,0,0,0-1.248.584,3.618,3.618,0,0,0-.976,1.4,2.457,2.457,0,0,0-.192.912q0,1.056.88,1.056a1.929,1.929,0,0,0,1.256-.576A3.588,3.588,0,0,0,74.608-2.864Zm12.816-.96a3.092,3.092,0,0,1-1.3,2.256A7.238,7.238,0,0,1,82.992-.016,6.654,6.654,0,0,1,81.5.16,5.017,5.017,0,0,1,80.352.032l-.128.752h-.192L78.3-9.44h3.648l-.768,4.528a7.2,7.2,0,0,1,3.344-.864,3.71,3.71,0,0,1,2.088.536A1.631,1.631,0,0,1,87.424-3.824Zm-2.944.7a1.8,1.8,0,0,0-.432-1.192,1.4,1.4,0,0,0-1.1-.472,3.6,3.6,0,0,0-1.9.7L80.464-.624a4.33,4.33,0,0,0,1.28.208,2.733,2.733,0,0,0,1.968-.768A2.47,2.47,0,0,0,84.48-3.12ZM94.7-.336l-6.128,1.52-.048-.1L91.12-.944,87.808-4.928,93.648-6.5l.032.08-2.4,1.984Z" transform="translate(224 373)"/>
    <path id="Path_39" data-name="Path 39" d="M4.768-1.868l3.047-8.8H9.353L5.4,0H4.153L.205-10.664H1.736Zm5.1-2.168a4.681,4.681,0,0,1,.458-2.095,3.415,3.415,0,0,1,1.274-1.436,3.469,3.469,0,0,1,1.864-.505,3.342,3.342,0,0,1,2.618,1.121,4.311,4.311,0,0,1,1,2.981v.1A4.722,4.722,0,0,1,16.644-1.8,3.365,3.365,0,0,1,15.377-.366a3.509,3.509,0,0,1-1.893.513A3.334,3.334,0,0,1,10.873-.974a4.29,4.29,0,0,1-1-2.966Zm1.362.161a3.39,3.39,0,0,0,.612,2.117,1.957,1.957,0,0,0,1.637.8,1.945,1.945,0,0,0,1.641-.809,3.707,3.707,0,0,0,.608-2.267,3.384,3.384,0,0,0-.619-2.113,1.968,1.968,0,0,0-1.644-.809,1.946,1.946,0,0,0-1.619.8A3.68,3.68,0,0,0,11.235-3.875ZM20.259,0H18.9V-11.25h1.355Z" transform="translate(318 319)"/>
    <path id="Path_40" data-name="Path 40" d="M4.38-4.753A6.612,6.612,0,0,1,1.747-6.031,2.442,2.442,0,0,1,.923-7.9,2.58,2.58,0,0,1,1.93-9.987a4,4,0,0,1,2.618-.824,4.369,4.369,0,0,1,1.959.425A3.222,3.222,0,0,1,7.841-9.214a3,3,0,0,1,.472,1.633H6.9a1.95,1.95,0,0,0-.615-1.525,2.5,2.5,0,0,0-1.736-.555A2.561,2.561,0,0,0,2.926-9.2a1.53,1.53,0,0,0-.582,1.273,1.376,1.376,0,0,0,.553,1.1A5.424,5.424,0,0,0,4.779-6a8.734,8.734,0,0,1,2.08.825A3.157,3.157,0,0,1,7.972-4.124,2.683,2.683,0,0,1,8.335-2.71,2.492,2.492,0,0,1,7.324-.634a4.31,4.31,0,0,1-2.7.78A5.013,5.013,0,0,1,2.571-.275,3.451,3.451,0,0,1,1.1-1.428,2.815,2.815,0,0,1,.586-3.091H2a1.837,1.837,0,0,0,.714,1.527A3.007,3.007,0,0,0,4.622-1a2.764,2.764,0,0,0,1.707-.454A1.475,1.475,0,0,0,6.921-2.7a1.448,1.448,0,0,0-.549-1.212A6.333,6.333,0,0,0,4.38-4.753ZM14.817-.784A2.878,2.878,0,0,1,12.5.146a2.464,2.464,0,0,1-1.93-.736A3.186,3.186,0,0,1,9.9-2.769V-7.925H11.25v5.12q0,1.8,1.465,1.8A2.028,2.028,0,0,0,14.78-2.161V-7.925h1.355V0H14.846ZM24.9-3.875a4.712,4.712,0,0,1-.835,2.919,2.668,2.668,0,0,1-2.241,1.1A2.763,2.763,0,0,1,19.5-.916L19.438,0H18.193V-11.25h1.355v4.2a2.747,2.747,0,0,1,2.263-1.018A2.684,2.684,0,0,1,24.078-6.98,4.853,4.853,0,0,1,24.9-3.992Zm-1.355-.154a3.662,3.662,0,0,0-.535-2.139,1.77,1.77,0,0,0-1.538-.754,1.989,1.989,0,0,0-1.926,1.245v3.428A2.045,2.045,0,0,0,21.489-1a1.76,1.76,0,0,0,1.516-.754A3.894,3.894,0,0,0,23.547-4.028ZM36.423-2.791H31.956L30.952,0H29.5l4.072-10.664H34.8L38.884,0H37.441ZM32.38-3.94h3.625L34.189-8.928Z" transform="translate(261 319)"/>
    <path id="Path_41" data-name="Path 41" d="M4.38-4.753A6.612,6.612,0,0,1,1.747-6.031,2.442,2.442,0,0,1,.923-7.9,2.58,2.58,0,0,1,1.93-9.987a4,4,0,0,1,2.618-.824,4.369,4.369,0,0,1,1.959.425A3.222,3.222,0,0,1,7.841-9.214a3,3,0,0,1,.472,1.633H6.9a1.95,1.95,0,0,0-.615-1.525,2.5,2.5,0,0,0-1.736-.555A2.561,2.561,0,0,0,2.926-9.2a1.53,1.53,0,0,0-.582,1.273,1.376,1.376,0,0,0,.553,1.1A5.424,5.424,0,0,0,4.779-6a8.734,8.734,0,0,1,2.08.825A3.157,3.157,0,0,1,7.972-4.124,2.683,2.683,0,0,1,8.335-2.71,2.492,2.492,0,0,1,7.324-.634a4.31,4.31,0,0,1-2.7.78A5.013,5.013,0,0,1,2.571-.275,3.451,3.451,0,0,1,1.1-1.428,2.815,2.815,0,0,1,.586-3.091H2a1.837,1.837,0,0,0,.714,1.527A3.007,3.007,0,0,0,4.622-1a2.764,2.764,0,0,0,1.707-.454A1.475,1.475,0,0,0,6.921-2.7a1.448,1.448,0,0,0-.549-1.212A6.333,6.333,0,0,0,4.38-4.753ZM14.817-.784A2.878,2.878,0,0,1,12.5.146a2.464,2.464,0,0,1-1.93-.736A3.186,3.186,0,0,1,9.9-2.769V-7.925H11.25v5.12q0,1.8,1.465,1.8A2.028,2.028,0,0,0,14.78-2.161V-7.925h1.355V0H14.846ZM24.9-3.875a4.712,4.712,0,0,1-.835,2.919,2.668,2.668,0,0,1-2.241,1.1A2.763,2.763,0,0,1,19.5-.916L19.438,0H18.193V-11.25h1.355v4.2a2.747,2.747,0,0,1,2.263-1.018A2.684,2.684,0,0,1,24.078-6.98,4.853,4.853,0,0,1,24.9-3.992Zm-1.355-.154a3.662,3.662,0,0,0-.535-2.139,1.77,1.77,0,0,0-1.538-.754,1.989,1.989,0,0,0-1.926,1.245v3.428A2.045,2.045,0,0,0,21.489-1a1.76,1.76,0,0,0,1.516-.754A3.894,3.894,0,0,0,23.547-4.028ZM30.535,0V-10.664h3.486a4.047,4.047,0,0,1,2.611.718,2.587,2.587,0,0,1,.875,2.124A2.166,2.166,0,0,1,37.083-6.5a2.754,2.754,0,0,1-1.157.89,2.473,2.473,0,0,1,1.366.919,2.638,2.638,0,0,1,.5,1.615,2.852,2.852,0,0,1-.93,2.256A3.847,3.847,0,0,1,34.233,0Zm1.406-4.988V-1.15h2.322a2.236,2.236,0,0,0,1.549-.509,1.788,1.788,0,0,0,.568-1.4q0-1.926-2.095-1.926Zm0-1.128h2.124a2.226,2.226,0,0,0,1.476-.462,1.55,1.55,0,0,0,.553-1.255,1.524,1.524,0,0,0-.513-1.281,2.518,2.518,0,0,0-1.56-.4h-2.08Z" transform="translate(212 319)"/>
  </g>
</svg>
